<?xml version="1.0" encoding="UTF-8"?>
<!DOCTYPE svg PUBLIC "-//W3C//DTD SVG 1.1//EN" "http://www.w3.org/Graphics/SVG/1.1/DTD/svg11.dtd">
<svg xmlns="http://www.w3.org/2000/svg" version="1.1" width="143px" height="133px" style="shape-rendering:geometricPrecision; text-rendering:geometricPrecision; image-rendering:optimizeQuality; fill-rule:evenodd; clip-rule:evenodd" xmlns:xlink="http://www.w3.org/1999/xlink">
<g><path style="opacity:1" fill="#fcfcfc" d="M -0.5,-0.5 C 47.1667,-0.5 94.8333,-0.5 142.5,-0.5C 142.5,43.8333 142.5,88.1667 142.5,132.5C 94.8333,132.5 47.1667,132.5 -0.5,132.5C -0.5,88.1667 -0.5,43.8333 -0.5,-0.5 Z"/></g>
<g><path style="opacity:1" fill="#343434" d="M 93.5,13.5 C 75.6264,7.56671 58.2931,8.90005 41.5,17.5C 43.428,15.5259 45.7613,14.0259 48.5,13C 63.7099,6.88765 78.7099,7.05431 93.5,13.5 Z"/></g>
<g><path style="opacity:1" fill="#343434" d="M 93.5,13.5 C 96.7541,13.7936 99.4208,15.127 101.5,17.5C 98.5152,16.6743 95.8485,15.341 93.5,13.5 Z"/></g>
<g><path style="opacity:1" fill="#323232" d="M 101.5,17.5 C 108.39,20.3905 113.724,25.0572 117.5,31.5C 112.437,26.4317 107.104,21.765 101.5,17.5 Z"/></g>
<g><path style="opacity:1" fill="#323232" d="M 117.5,31.5 C 119.262,32.2623 120.262,33.5956 120.5,35.5C 118.738,34.7377 117.738,33.4044 117.5,31.5 Z"/></g>
<g><path style="opacity:1" fill="#323232" d="M 120.5,35.5 C 124.77,40.7137 127.437,46.7137 128.5,53.5C 125.872,47.5684 123.205,41.5684 120.5,35.5 Z"/></g>
<g><path style="opacity:1" fill="#313131" d="M 41.5,17.5 C 26.1769,27.8028 17.1769,42.1361 14.5,60.5C 13.8333,65.5 13.1667,70.5 12.5,75.5C 10.4666,54.0744 17.4666,36.2411 33.5,22C 35.8171,19.8431 38.4838,18.3431 41.5,17.5 Z"/></g>
<g><path style="opacity:1" fill="#191919" d="M 129.5,54.5 C 130.341,61.4648 130.674,68.4648 130.5,75.5C 129.833,70.5 129.167,65.5 128.5,60.5C 128.205,58.2646 128.539,56.2646 129.5,54.5 Z"/></g>
<g><path style="opacity:1" fill="#959595" d="M 14.5,60.5 C 14.5,65.8333 14.5,71.1667 14.5,76.5C 14.1667,76.5 13.8333,76.5 13.5,76.5C 12.8333,76.5 12.5,76.1667 12.5,75.5C 13.1667,70.5 13.8333,65.5 14.5,60.5 Z"/></g>
<g><path style="opacity:1" fill="#969696" d="M 128.5,60.5 C 129.167,65.5 129.833,70.5 130.5,75.5C 130.5,76.1667 130.167,76.5 129.5,76.5C 129.167,76.5 128.833,76.5 128.5,76.5C 128.5,71.1667 128.5,65.8333 128.5,60.5 Z"/></g>
<g><path style="opacity:1" fill="#212121" d="M 13.5,76.5 C 13.8333,76.5 14.1667,76.5 14.5,76.5C 15.1032,79.0409 15.1032,81.3743 14.5,83.5C 13.7814,81.2362 13.448,78.9029 13.5,76.5 Z"/></g>
<g><path style="opacity:1" fill="#2c2c2c" d="M 128.5,76.5 C 128.833,76.5 129.167,76.5 129.5,76.5C 129.361,82.4093 127.695,87.7426 124.5,92.5C 126.039,87.2157 127.373,81.8823 128.5,76.5 Z"/></g>
<g><path style="opacity:1" fill="#343434" d="M 18.5,92.5 C 17.2632,91.0351 16.2632,89.3684 15.5,87.5C 15.3505,86.448 15.5172,85.448 16,84.5C 17.3409,87.022 18.1743,89.6887 18.5,92.5 Z"/></g>
<g><path style="opacity:1" fill="#272727" d="M 19.5,94.5 C 20.5,94.8333 21.1667,95.5 21.5,96.5C 22.1098,97.391 22.4431,98.391 22.5,99.5C 20.7497,98.3406 19.7497,96.674 19.5,94.5 Z"/></g>
<g><path style="opacity:1" fill="#2f2f2f" d="M 124.5,92.5 C 124.002,95.3263 122.669,97.6597 120.5,99.5C 121.079,96.6689 122.412,94.3356 124.5,92.5 Z"/></g>
<g><path style="opacity:1" fill="#888888" d="M 20.5,88.5 C 23.1633,93.1588 25.8299,97.8254 28.5,102.5C 27.2058,101.71 26.0391,100.71 25,99.5C 24.6012,99.7284 24.4346,100.062 24.5,100.5C 23.8333,100.167 23.1667,99.8333 22.5,99.5C 22.4431,98.391 22.1098,97.391 21.5,96.5C 22.0967,96.2648 22.4301,95.7648 22.5,95C 20.9872,93.1208 20.3205,90.9541 20.5,88.5 Z"/></g>
<g><path style="opacity:1" fill="#343434" d="M 22.5,99.5 C 23.1667,99.8333 23.8333,100.167 24.5,100.5C 27.1914,104.185 29.8581,107.852 32.5,111.5C 28.0427,108.381 24.7094,104.381 22.5,99.5 Z"/></g>
<g><path style="opacity:1" fill="#1b1b1b" d="M 120.5,99.5 C 120.573,101.027 119.906,102.027 118.5,102.5C 118.427,100.973 119.094,99.9731 120.5,99.5 Z"/></g>
<g><path style="opacity:1" fill="#373737" d="M 118.5,102.5 C 117.25,104.932 115.75,107.266 114,109.5C 113.329,110.252 112.496,110.586 111.5,110.5C 113.117,107.216 115.45,104.549 118.5,102.5 Z"/></g>
<g><path style="opacity:1" fill="#dcdcdc" d="M 93.5,13.5 C 95.8485,15.341 98.5152,16.6743 101.5,17.5C 107.104,21.765 112.437,26.4317 117.5,31.5C 117.738,33.4044 118.738,34.7377 120.5,35.5C 123.205,41.5684 125.872,47.5684 128.5,53.5C 129.167,53.5 129.5,53.8333 129.5,54.5C 128.539,56.2646 128.205,58.2646 128.5,60.5C 128.5,65.8333 128.5,71.1667 128.5,76.5C 127.373,81.8823 126.039,87.2157 124.5,92.5C 122.412,94.3356 121.079,96.6689 120.5,99.5C 119.094,99.9731 118.427,100.973 118.5,102.5C 115.45,104.549 113.117,107.216 111.5,110.5C 106.984,113.256 102.651,116.256 98.5,119.5C 96.0326,119.755 94.0326,120.755 92.5,122.5C 77.7215,126.753 63.0549,126.419 48.5,121.5C 43.1748,118.17 37.8414,114.836 32.5,111.5C 29.8581,107.852 27.1914,104.185 24.5,100.5C 24.4346,100.062 24.6012,99.7284 25,99.5C 26.0391,100.71 27.2058,101.71 28.5,102.5C 25.8299,97.8254 23.1633,93.1588 20.5,88.5C 20.3205,90.9541 20.9872,93.1208 22.5,95C 22.4301,95.7648 22.0967,96.2648 21.5,96.5C 21.1667,95.5 20.5,94.8333 19.5,94.5C 18.6618,94.1583 18.3284,93.4916 18.5,92.5C 18.1743,89.6887 17.3409,87.022 16,84.5C 15.5172,85.448 15.3505,86.448 15.5,87.5C 14.5655,86.4324 14.2322,85.099 14.5,83.5C 15.1032,81.3743 15.1032,79.0409 14.5,76.5C 14.5,71.1667 14.5,65.8333 14.5,60.5C 17.1769,42.1361 26.1769,27.8028 41.5,17.5C 58.2931,8.90005 75.6264,7.56671 93.5,13.5 Z"/></g>
<g><path style="opacity:1" fill="#4b4b4b" d="M 36.5,110.5 C 38.4044,110.738 39.7377,111.738 40.5,113.5C 38.5956,113.262 37.2623,112.262 36.5,110.5 Z"/></g>
<g><path style="opacity:1" fill="#656565" d="M 106.5,110.5 C 108.795,107.703 111.295,105.036 114,102.5C 112.804,106.202 110.304,108.869 106.5,110.5 Z"/></g>
<g><path style="opacity:1" fill="#525252" d="M 110.5,102.5 C 109.833,104.5 108.5,105.833 106.5,106.5C 107.11,105.609 107.443,104.609 107.5,103.5C 108.609,103.443 109.609,103.11 110.5,102.5 Z"/></g>
<g><path style="opacity:1" fill="#585858" d="M 28.5,102.5 C 31.5,104.833 34.1667,107.5 36.5,110.5C 32.8333,108.833 30.1667,106.167 28.5,102.5 Z"/></g>
<g><path style="opacity:1" fill="#e7e7e7" d="M 107.5,103.5 C 107.443,104.609 107.11,105.609 106.5,106.5C 102.994,105.884 102.161,104.217 104,101.5C 104.816,102.823 105.983,103.489 107.5,103.5 Z"/></g>
<g><path style="opacity:1" fill="#e3e3e3" d="M 110.5,100.5 C 110.5,101.167 110.5,101.833 110.5,102.5C 109.609,103.11 108.609,103.443 107.5,103.5C 105.365,101.94 105.198,100.273 107,98.5C 107.816,99.8228 108.983,100.489 110.5,100.5 Z"/></g>
<g><path style="opacity:1" fill="#e4e4e4" d="M 112.5,96.5 C 113.429,98.3217 112.762,99.6551 110.5,100.5C 107.434,96.778 108.101,95.4447 112.5,96.5 Z"/></g>
<g><path style="opacity:1" fill="#e4e4e4" d="M 34.5,95.5 C 34.6085,97.5138 33.9418,99.1805 32.5,100.5C 30.2381,99.6551 29.5714,98.3217 30.5,96.5C 31.8333,96.1667 33.1667,95.8333 34.5,95.5 Z"/></g>
<g><path style="opacity:1" fill="#464646" d="M 32.5,92.5 C 33.9063,92.9731 34.573,93.9731 34.5,95.5C 33.1667,95.8333 31.8333,96.1667 30.5,96.5C 31.6005,95.3951 32.2671,94.0618 32.5,92.5 Z"/></g>
<g><path style="opacity:1" fill="#e8e8e8" d="M 112.5,96.5 C 111.4,95.3951 110.733,94.0618 110.5,92.5C 112.353,91.8764 114.02,92.5431 115.5,94.5C 114.995,95.9185 113.995,96.5852 112.5,96.5 Z"/></g>
<g><path style="opacity:1" fill="#e6e6e6" d="M 32.5,92.5 C 32.2671,94.0618 31.6005,95.3951 30.5,96.5C 29.0047,96.5852 28.0047,95.9185 27.5,94.5C 28.9801,92.5431 30.6467,91.8764 32.5,92.5 Z"/></g>
<g><path style="opacity:1" fill="#d9d9d9" d="M 67.5,22.5 C 70.8333,22.5 74.1667,22.5 77.5,22.5C 82.6126,23.4267 87.6126,24.76 92.5,26.5C 95.7959,28.8208 99.1292,31.1542 102.5,33.5C 103.167,34.8333 104.167,35.8333 105.5,36.5C 107.354,40.2208 109.687,43.5541 112.5,46.5C 114.447,51.6749 115.78,57.0083 116.5,62.5C 116.5,66.1667 116.5,69.8333 116.5,73.5C 116.343,74.8734 116.51,76.2068 117,77.5C 118.88,76.0705 120.38,76.4038 121.5,78.5C 119.647,79.7596 117.814,79.7596 116,78.5C 115.517,79.448 115.351,80.448 115.5,81.5C 113.597,84.9789 111.93,88.6456 110.5,92.5C 106.862,96.4741 103.195,100.474 99.5,104.5C 97.5956,104.738 96.2623,105.738 95.5,107.5C 87.8178,110.5 79.8178,112.5 71.5,113.5C 62.7081,112.566 54.3747,110.233 46.5,106.5C 46.0269,105.094 45.0269,104.427 43.5,104.5C 40.8333,101.167 37.8333,98.1667 34.5,95.5C 34.573,93.9731 33.9063,92.9731 32.5,92.5C 31.0698,88.6456 29.4031,84.9789 27.5,81.5C 27.3215,78.7835 26.8215,76.1168 26,73.5C 24.5993,75.1922 22.7659,75.8588 20.5,75.5C 20.5,74.5 20.5,73.5 20.5,72.5C 22.1992,72.6602 23.8659,72.4935 25.5,72C 23.5273,71.5045 21.5273,71.3379 19.5,71.5C 19.5,70.5 19.5,69.5 19.5,68.5C 27.3981,68.1136 27.3981,67.1136 19.5,65.5C 21.686,64.7792 23.8526,64.1125 26,63.5C 27.2263,53.3009 31.0596,44.3009 37.5,36.5C 38.8333,35.8333 39.8333,34.8333 40.5,33.5C 43.8708,31.1542 47.2041,28.8208 50.5,26.5C 55.9768,24.3809 61.6435,23.0475 67.5,22.5 Z"/></g>
<g><path style="opacity:1" fill="#535353" d="M 105.5,94.5 C 102.709,99.9549 98.376,103.622 92.5,105.5C 97.1017,102.238 101.435,98.5717 105.5,94.5 Z"/></g>
<g><path style="opacity:1" fill="#545454" d="M 37.5,94.5 C 40.1184,96.4517 42.4518,98.785 44.5,101.5C 41.1886,100.189 38.8552,97.8553 37.5,94.5 Z"/></g>
<g><path style="opacity:1" fill="#484848" d="M 35.5,91.5 C 36.9063,91.9731 37.573,92.9731 37.5,94.5C 36.0937,94.0269 35.427,93.0269 35.5,91.5 Z"/></g>
<g><path style="opacity:1" fill="#515151" d="M 33.5,88.5 C 34.9063,88.9731 35.573,89.9731 35.5,91.5C 34.0937,91.0269 33.427,90.0269 33.5,88.5 Z"/></g>
<g><path style="opacity:1" fill="#525252" d="M 29.5,77.5 C 31.2078,80.9503 32.5412,84.617 33.5,88.5C 30.7905,85.3996 29.4571,81.733 29.5,77.5 Z"/></g>
<g><path style="opacity:1" fill="#535353" d="M 121.5,44.5 C 129.734,61.5794 129.234,78.5794 120,95.5C 119.346,96.6956 118.846,96.6956 118.5,95.5C 126.02,80.8017 127.52,65.4684 123,49.5C 122.617,48.944 122.117,48.6107 121.5,48.5C 121.5,47.1667 121.5,45.8333 121.5,44.5 Z"/></g>
<g><path style="opacity:1" fill="#5f5f5f" d="M 105.5,94.5 C 108.52,89.1204 111.02,83.4537 113,77.5C 113.499,72.8452 113.666,68.1785 113.5,63.5C 113.34,61.8008 113.506,60.1341 114,58.5C 116.54,70.592 114.54,81.9254 108,92.5C 107.292,93.3805 106.458,94.0472 105.5,94.5 Z"/></g>
<g><path style="opacity:1" fill="#aaaaaa" d="M 116.5,62.5 C 116.833,62.5 117.167,62.5 117.5,62.5C 118.167,62.5 118.833,62.5 119.5,62.5C 120.568,63.4345 121.901,63.7678 123.5,63.5C 123.5,64.8333 123.5,66.1667 123.5,67.5C 115.5,67.8333 115.5,68.1667 123.5,68.5C 123.5,69.5 123.5,70.5 123.5,71.5C 121.473,71.3379 119.473,71.5045 117.5,72C 119.134,72.4935 120.801,72.6602 122.5,72.5C 122.5,73.5 122.5,74.5 122.5,75.5C 120.114,75.7413 118.114,75.0746 116.5,73.5C 116.5,69.8333 116.5,66.1667 116.5,62.5 Z"/></g>
<g><path style="opacity:1" fill="#666666" d="M 30.5,54.5 C 29.6423,62.1322 29.3089,69.7989 29.5,77.5C 26.7106,69.7174 27.0439,62.0507 30.5,54.5 Z"/></g>
<g><path style="opacity:1" fill="#505050" d="M 40.5,24.5 C 40.8333,25.1667 41.1667,25.8333 41.5,26.5C 39.9519,26.8212 39.2852,27.8212 39.5,29.5C 37.8942,28.2197 36.8942,28.7197 36.5,31C 37.0319,33.0197 38.3652,33.853 40.5,33.5C 39.8333,34.8333 38.8333,35.8333 37.5,36.5C 31.0596,44.3009 27.2263,53.3009 26,63.5C 23.8526,64.1125 21.686,64.7792 19.5,65.5C 27.3981,67.1136 27.3981,68.1136 19.5,68.5C 19.5,69.5 19.5,70.5 19.5,71.5C 21.5273,71.3379 23.5273,71.5045 25.5,72C 23.8659,72.4935 22.1992,72.6602 20.5,72.5C 20.5,73.5 20.5,74.5 20.5,75.5C 22.7659,75.8588 24.5993,75.1922 26,73.5C 26.8215,76.1168 27.3215,78.7835 27.5,81.5C 29.4031,84.9789 31.0698,88.6456 32.5,92.5C 30.6467,91.8764 28.9801,92.5431 27.5,94.5C 28.0047,95.9185 29.0047,96.5852 30.5,96.5C 29.5714,98.3217 30.2381,99.6551 32.5,100.5C 32.631,101.239 32.4643,101.906 32,102.5C 29.0651,99.6211 26.8985,96.2877 25.5,92.5C 24.3263,91.4863 23.6596,90.153 23.5,88.5C 17.116,74.6978 16.9493,60.6978 23,46.5C 24.0259,43.7613 25.5259,41.428 27.5,39.5C 30.173,34.3134 33.8397,29.8134 38.5,26C 36.4634,26.4826 34.4634,27.3159 32.5,28.5C 35.0717,24.7412 38.4051,22.2412 42.5,21C 41.5,22 40.5,23 39.5,24C 39.7284,24.3988 40.0618,24.5654 40.5,24.5 Z"/></g>
<g><path style="opacity:1" fill="#e9e9e9" d="M 25.5,92.5 C 25.977,88.927 27.6436,88.0936 30.5,90C 29.3474,91.883 27.6807,92.7163 25.5,92.5 Z"/></g>
<g><path style="opacity:1" fill="#eaeaea" d="M 23.5,88.5 C 23.5,87.5 23.5,86.5 23.5,85.5C 24.8221,85.67 25.9887,85.3366 27,84.5C 27.6924,85.0253 28.1924,85.6919 28.5,86.5C 27.1502,87.9501 25.4835,88.6168 23.5,88.5 Z"/></g>
<g><path style="opacity:1" fill="#e9e9e9" d="M 27.5,81.5 C 25.5912,84.6559 23.5912,84.8226 21.5,82C 23.5479,80.7586 25.5479,80.5919 27.5,81.5 Z"/></g>
<g><path style="opacity:1" fill="#ededed" d="M 21.5,76.5 C 22.8333,76.5 24.1667,76.5 25.5,76.5C 25.5,77.5 25.5,78.5 25.5,79.5C 24.1667,79.5 22.8333,79.5 21.5,79.5C 21.5,78.5 21.5,77.5 21.5,76.5 Z"/></g>
<g><path style="opacity:1" fill="#f9f9f9" d="M 118.5,64.5 C 119.978,64.238 121.311,64.5713 122.5,65.5C 121.833,65.8333 121.167,66.1667 120.5,66.5C 119.287,66.2528 118.62,65.5862 118.5,64.5 Z"/></g>
<g><path style="opacity:1" fill="#646464" d="M 20.5,46.5 C 16.5001,60.4985 16.5001,74.4985 20.5,88.5C 15.4311,77.7051 14.2645,66.3718 17,54.5C 17.7048,51.5243 18.8714,48.8577 20.5,46.5 Z"/></g>
<g><path style="opacity:1" fill="#e1e1e1" d="M 20.5,59.5 C 22.1667,59.5 23.8333,59.5 25.5,59.5C 25.5,60.5 25.5,61.5 25.5,62.5C 23.8333,62.5 22.1667,62.5 20.5,62.5C 20.5,61.5 20.5,60.5 20.5,59.5 Z"/></g>
<g><path style="opacity:1" fill="#f5f5f5" d="M 21.5,55.5 C 23.3464,55.2222 24.6798,55.8888 25.5,57.5C 24.3112,58.4287 22.9778,58.762 21.5,58.5C 21.5,57.5 21.5,56.5 21.5,55.5 Z"/></g>
<g><path style="opacity:1" fill="#444444" d="M 34.5,45.5 C 33.4031,48.6865 32.0697,51.6865 30.5,54.5C 30.5018,50.8355 31.8352,47.8355 34.5,45.5 Z"/></g>
<g><path style="opacity:1" fill="#f3f3f3" d="M 22.5,50.5 C 24.1998,51.016 25.5331,52.016 26.5,53.5C 23.5812,54.9318 22.2479,53.9318 22.5,50.5 Z"/></g>
<g><path style="opacity:1" fill="#e9e9e9" d="M 24.5,46.5 C 29.552,48.663 29.552,49.8297 24.5,50C 23.3157,48.8545 23.3157,47.6879 24.5,46.5 Z"/></g>
<g><path style="opacity:1" fill="#4f4f4f" d="M 107.5,29.5 C 111.3,31.9626 113.967,35.296 115.5,39.5C 117.748,42.328 119.748,45.328 121.5,48.5C 124.655,59.0303 125.155,69.697 123,80.5C 122.295,83.4757 121.129,86.1423 119.5,88.5C 119.34,90.153 118.674,91.4863 117.5,92.5C 116.149,96.5416 113.815,99.8749 110.5,102.5C 110.5,101.833 110.5,101.167 110.5,100.5C 112.762,99.6551 113.429,98.3217 112.5,96.5C 113.995,96.5852 114.995,95.9185 115.5,94.5C 114.02,92.5431 112.353,91.8764 110.5,92.5C 111.93,88.6456 113.597,84.9789 115.5,81.5C 115.351,80.448 115.517,79.448 116,78.5C 117.814,79.7596 119.647,79.7596 121.5,78.5C 120.38,76.4038 118.88,76.0705 117,77.5C 116.51,76.2068 116.343,74.8734 116.5,73.5C 118.114,75.0746 120.114,75.7413 122.5,75.5C 122.5,74.5 122.5,73.5 122.5,72.5C 120.801,72.6602 119.134,72.4935 117.5,72C 119.473,71.5045 121.473,71.3379 123.5,71.5C 123.5,70.5 123.5,69.5 123.5,68.5C 115.5,68.1667 115.5,67.8333 123.5,67.5C 123.5,66.1667 123.5,64.8333 123.5,63.5C 121.901,63.7678 120.568,63.4345 119.5,62.5C 120.5,62.5 121.5,62.5 122.5,62.5C 122.5,61.5 122.5,60.5 122.5,59.5C 119.715,58.9162 118.048,59.9162 117.5,62.5C 117.167,62.5 116.833,62.5 116.5,62.5C 115.78,57.0083 114.447,51.6749 112.5,46.5C 109.687,43.5541 107.354,40.2208 105.5,36.5C 107.681,36.7163 109.347,35.883 110.5,34C 109.038,32.3721 107.372,32.2054 105.5,33.5C 106.6,32.3951 107.267,31.0618 107.5,29.5 Z"/></g>
<g><path style="opacity:1" fill="#eaeaea" d="M 117.5,92.5 C 115.577,92.205 113.91,91.3717 112.5,90C 115.356,88.0936 117.023,88.927 117.5,92.5 Z"/></g>
<g><path style="opacity:1" fill="#e9e9e9" d="M 119.5,88.5 C 117.516,88.6168 115.85,87.9501 114.5,86.5C 114.808,85.6919 115.308,85.0253 116,84.5C 117.011,85.3366 118.178,85.67 119.5,85.5C 119.5,86.5 119.5,87.5 119.5,88.5 Z"/></g>
<g><path style="opacity:1" fill="#e9e9e9" d="M 115.5,81.5 C 116.973,80.9285 118.64,80.9285 120.5,81.5C 120.719,82.675 120.386,83.675 119.5,84.5C 117.517,84.1852 116.184,83.1852 115.5,81.5 Z"/></g>
<g><path style="opacity:1" fill="#e0e0e0" d="M 119.5,62.5 C 118.833,62.5 118.167,62.5 117.5,62.5C 118.048,59.9162 119.715,58.9162 122.5,59.5C 122.5,60.5 122.5,61.5 122.5,62.5C 121.5,62.5 120.5,62.5 119.5,62.5 Z"/></g>
<g><path style="opacity:1" fill="#f4f4f4" d="M 117.5,55.5 C 118.833,55.5 120.167,55.5 121.5,55.5C 121.5,56.5 121.5,57.5 121.5,58.5C 120.167,58.5 118.833,58.5 117.5,58.5C 117.5,57.5 117.5,56.5 117.5,55.5 Z"/></g>
<g><path style="opacity:1" fill="#e9e9e9" d="M 118.5,50.5 C 120.176,51.1834 120.843,52.5168 120.5,54.5C 119.167,54.5 117.833,54.5 116.5,54.5C 116.527,52.8007 117.194,51.4674 118.5,50.5 Z"/></g>
<g><path style="opacity:1" fill="#e7e7e7" d="M 118.5,50.5 C 113.485,50.1368 113.318,48.8034 118,46.5C 119.768,47.6819 119.935,49.0152 118.5,50.5 Z"/></g>
<g><path style="opacity:1" fill="#e9e9e9" d="M 112.5,46.5 C 112.762,44.4362 113.929,43.1029 116,42.5C 117.489,43.4239 117.656,44.4239 116.5,45.5C 115.264,46.2458 113.93,46.5792 112.5,46.5 Z"/></g>
<g><path style="opacity:1" fill="#eeeeee" d="M 26.5,42.5 C 31.7993,44.7159 31.7993,45.7159 26.5,45.5C 25.4376,44.5754 25.4376,43.5754 26.5,42.5 Z"/></g>
<g><path style="opacity:1" fill="#424242" d="M 121.5,44.5 C 119.825,42.8212 118.992,40.8212 119,38.5C 120.663,40.1579 121.496,42.1579 121.5,44.5 Z"/></g>
<g><path style="opacity:1" fill="#eaeaea" d="M 115.5,39.5 C 115.238,41.5638 114.071,42.8971 112,43.5C 111.667,43.1667 111.333,42.8333 111,42.5C 111.193,40.8126 112.193,39.4792 114,38.5C 114.383,39.056 114.883,39.3893 115.5,39.5 Z"/></g>
<g><path style="opacity:1" fill="#f0f0f0" d="M 27.5,39.5 C 29.3533,38.8764 31.0199,39.5431 32.5,41.5C 31.5789,43.815 30.2456,43.9817 28.5,42C 27.7476,41.3292 27.4142,40.4959 27.5,39.5 Z"/></g>
<g><path style="opacity:1" fill="#f0f0f0" d="M 110.5,35.5 C 113.101,36.9225 112.934,38.2558 110,39.5C 109.5,39.1667 109,38.8333 108.5,38.5C 109.193,37.4822 109.859,36.4822 110.5,35.5 Z"/></g>
<g><path style="opacity:1" fill="#585858" d="M 46.5,32.5 C 43.5,36.1667 40.1667,39.5 36.5,42.5C 38.8333,38.1667 42.1667,34.8333 46.5,32.5 Z"/></g>
<g><path style="opacity:1" fill="#555555" d="M 100.5,35.5 C 108.284,41.0863 112.284,48.4197 112.5,57.5C 112.035,53.9385 110.868,50.6051 109,47.5C 106.311,43.3249 103.477,39.3249 100.5,35.5 Z"/></g>
<g><path style="opacity:1" fill="#555555" d="M 32.5,28.5 C 28.1003,34.2331 24.1003,40.2331 20.5,46.5C 22.5052,39.163 26.5052,33.163 32.5,28.5 Z"/></g>
<g><path style="opacity:1" fill="#f2f2f2" d="M 30.5,35.5 C 32.3841,35.7118 33.7174,36.7118 34.5,38.5C 31.5812,39.9318 30.2479,38.9318 30.5,35.5 Z"/></g>
<g><path style="opacity:1" fill="#3c3c3c" d="M 102.5,33.5 C 103.5,33.5 104.5,33.5 105.5,33.5C 105.5,34.5 105.5,35.5 105.5,36.5C 104.167,35.8333 103.167,34.8333 102.5,33.5 Z"/></g>
<g><path style="opacity:1" fill="#494949" d="M 96.5,32.5 C 98.4044,32.7376 99.7377,33.7376 100.5,35.5C 98.5956,35.2624 97.2623,34.2624 96.5,32.5 Z"/></g>
<g><path style="opacity:1" fill="#eeeeee" d="M 37.5,36.5 C 35.3193,36.7163 33.6526,35.883 32.5,34C 35.2169,32.1608 36.8836,32.9941 37.5,36.5 Z"/></g>
<g><path style="opacity:1" fill="#545454" d="M 110.5,28.5 C 113.395,30.2023 115.228,32.5356 116,35.5C 113.546,33.5588 111.713,31.2254 110.5,28.5 Z"/></g>
<g><path style="opacity:1" fill="#e8e8e8" d="M 105.5,36.5 C 105.5,35.5 105.5,34.5 105.5,33.5C 107.372,32.2054 109.038,32.3721 110.5,34C 109.347,35.883 107.681,36.7163 105.5,36.5 Z"/></g>
<g><path style="opacity:1" fill="#535353" d="M 58.5,26.5 C 54.5388,28.4806 50.5388,30.4806 46.5,32.5C 49.65,28.9249 53.65,26.9249 58.5,26.5 Z"/></g>
<g><path style="opacity:1" fill="#eaeaea" d="M 39.5,29.5 C 39.8333,30.8333 40.1667,32.1667 40.5,33.5C 38.3652,33.853 37.0319,33.0197 36.5,31C 36.8942,28.7197 37.8942,28.2197 39.5,29.5 Z"/></g>
<g><path style="opacity:1" fill="#4d4d4d" d="M 87.5,27.5 C 91.244,27.928 94.244,29.5947 96.5,32.5C 93.2402,31.2262 90.2402,29.5595 87.5,27.5 Z"/></g>
<g><path style="opacity:1" fill="#e0e0e0" d="M 107.5,29.5 C 107.267,31.0618 106.6,32.3951 105.5,33.5C 104.5,33.5 103.5,33.5 102.5,33.5C 102.833,32.1667 103.167,30.8333 103.5,29.5C 104.702,28.5946 106.036,28.5946 107.5,29.5 Z"/></g>
<g><path style="opacity:1" fill="#464646" d="M 102.5,25.5 C 104.749,26.0798 106.415,27.4131 107.5,29.5C 106.036,28.5946 104.702,28.5946 103.5,29.5C 103.567,28.0413 103.234,26.7079 102.5,25.5 Z"/></g>
<g><path style="opacity:1" fill="#3f3f3f" d="M 92.5,26.5 C 94.4835,26.3832 96.1502,27.0499 97.5,28.5C 98.5178,27.8075 99.5178,27.1408 100.5,26.5C 98.9341,30.9433 99.9341,31.9433 103.5,29.5C 103.167,30.8333 102.833,32.1667 102.5,33.5C 99.1292,31.1542 95.7959,28.8208 92.5,26.5 Z"/></g>
<g><path style="opacity:1" fill="#e5e5e5" d="M 102.5,25.5 C 103.234,26.7079 103.567,28.0413 103.5,29.5C 99.9341,31.9433 98.9341,30.9433 100.5,26.5C 101.167,26.1667 101.833,25.8333 102.5,25.5 Z"/></g>
<g><path style="opacity:1" fill="#e7e7e7" d="M 41.5,26.5 C 41.8333,26.5 42.1667,26.5 42.5,26.5C 44.0659,30.9433 43.0659,31.9433 39.5,29.5C 39.2852,27.8212 39.9519,26.8212 41.5,26.5 Z"/></g>
<g><path style="opacity:1" fill="#d7d7d7" d="M 99.5,23.5 C 100.11,24.391 100.443,25.391 100.5,26.5C 99.5178,27.1408 98.5178,27.8075 97.5,28.5C 96.1502,27.0499 94.4835,26.3832 92.5,26.5C 92.7979,21.2824 94.2979,20.6157 97,24.5C 97.6708,23.7476 98.5041,23.4142 99.5,23.5 Z"/></g>
<g><path style="opacity:1" fill="#fafafa" d="M 87.5,27.5 C 90.2402,29.5595 93.2402,31.2262 96.5,32.5C 97.2623,34.2624 98.5956,35.2624 100.5,35.5C 103.477,39.3249 106.311,43.3249 109,47.5C 110.868,50.6051 112.035,53.9385 112.5,57.5C 112.205,59.7354 112.539,61.7354 113.5,63.5C 113.666,68.1785 113.499,72.8452 113,77.5C 111.02,83.4537 108.52,89.1204 105.5,94.5C 101.435,98.5717 97.1017,102.238 92.5,105.5C 91.5084,105.328 90.8417,105.662 90.5,106.5C 86.5957,107.809 82.5957,108.809 78.5,109.5C 73.8333,109.5 69.1667,109.5 64.5,109.5C 61.0321,108.899 57.6988,107.899 54.5,106.5C 53.4324,105.566 52.099,105.232 50.5,105.5C 48.8525,103.674 46.8525,102.34 44.5,101.5C 42.4518,98.785 40.1184,96.4517 37.5,94.5C 37.573,92.9731 36.9063,91.9731 35.5,91.5C 35.573,89.9731 34.9063,88.9731 33.5,88.5C 32.5412,84.617 31.2078,80.9503 29.5,77.5C 29.3089,69.7989 29.6423,62.1322 30.5,54.5C 32.0697,51.6865 33.4031,48.6865 34.5,45.5C 35.9063,45.0269 36.573,44.0269 36.5,42.5C 40.1667,39.5 43.5,36.1667 46.5,32.5C 50.5388,30.4806 54.5388,28.4806 58.5,26.5C 68.2462,24.9953 77.9129,25.3286 87.5,27.5 Z"/></g>
<g><path style="opacity:1" fill="#636363" d="M 51.5,44.5 C 51.5,59.8333 51.5,75.1667 51.5,90.5C 54.1667,90.5 56.8333,90.5 59.5,90.5C 59.1765,83.9779 59.5098,77.6446 60.5,71.5C 60.5,78.1667 60.5,84.8333 60.5,91.5C 57.1667,91.5 53.8333,91.5 50.5,91.5C 50.1704,75.6578 50.5037,59.9911 51.5,44.5 Z"/></g>
<g><path style="opacity:1" fill="#080808" d="M 51.5,44.5 C 59.84,44.3336 68.1733,44.5003 76.5,45C 88.411,47.6589 91.5776,54.4923 86,65.5C 83.5925,67.9561 80.7591,69.7894 77.5,71C 83.0955,76.4335 87.7622,82.6002 91.5,89.5C 87.8333,90.8333 84.1667,90.8333 80.5,89.5C 77.1301,82.9617 72.7968,77.1284 67.5,72C 65.1902,71.5034 62.8568,71.3367 60.5,71.5C 59.5098,77.6446 59.1765,83.9779 59.5,90.5C 56.8333,90.5 54.1667,90.5 51.5,90.5C 51.5,75.1667 51.5,59.8333 51.5,44.5 Z"/></g>
<g><path style="opacity:1" fill="#909090" d="M 60.5,52.5 C 60.5,56.1667 60.5,59.8333 60.5,63.5C 64.8333,63.5 69.1667,63.5 73.5,63.5C 69.03,64.4861 64.3633,64.8195 59.5,64.5C 59.1832,60.2984 59.5166,56.2984 60.5,52.5 Z"/></g>
<g><path style="opacity:1" fill="#f4f4f4" d="M 60.5,52.5 C 65.8437,52.334 71.1771,52.5006 76.5,53C 80.0349,55.8384 80.3682,59.0051 77.5,62.5C 76.2638,63.2458 74.9305,63.5792 73.5,63.5C 69.1667,63.5 64.8333,63.5 60.5,63.5C 60.5,59.8333 60.5,56.1667 60.5,52.5 Z"/></g>
<g><path style="opacity:1" fill="#262626" d="M 99.5,23.5 C 101.027,23.427 102.027,24.0937 102.5,25.5C 101.833,25.8333 101.167,26.1667 100.5,26.5C 100.443,25.391 100.11,24.391 99.5,23.5 Z"/></g>
<g><path style="opacity:1" fill="#646464" d="M 87.5,27.5 C 77.9129,25.3286 68.2462,24.9953 58.5,26.5C 62.348,24.6923 66.5147,23.6923 71,23.5C 76.2097,24.0627 81.3763,24.8961 86.5,26C 87.056,26.3826 87.3893,26.8826 87.5,27.5 Z"/></g>
<g><path style="opacity:1" fill="#e2e2e2" d="M 43.5,23.5 C 45.5638,23.7619 46.8971,24.9286 47.5,27C 45.7271,28.802 44.0605,28.6353 42.5,26.5C 42.5569,25.391 42.8902,24.391 43.5,23.5 Z"/></g>
<g><path style="opacity:1" fill="#252525" d="M 43.5,23.5 C 42.8902,24.391 42.5569,25.391 42.5,26.5C 42.1667,26.5 41.8333,26.5 41.5,26.5C 41.1667,25.8333 40.8333,25.1667 40.5,24.5C 41.391,23.8902 42.391,23.5569 43.5,23.5 Z"/></g>
<g><path style="opacity:1" fill="#515151" d="M 100.5,21.5 C 103.535,21.5316 106.202,23.0316 108.5,26C 105.802,24.8587 103.135,23.3587 100.5,21.5 Z"/></g>
<g><path style="opacity:1" fill="#4a4a4a" d="M 65.5,15.5 C 67.0276,16.8021 68.0276,18.4687 68.5,20.5C 68.1667,21.1667 67.8333,21.8333 67.5,22.5C 61.6435,23.0475 55.9768,24.3809 50.5,26.5C 47.2041,28.8208 43.8708,31.1542 40.5,33.5C 40.1667,32.1667 39.8333,30.8333 39.5,29.5C 43.0659,31.9433 44.0659,30.9433 42.5,26.5C 44.0605,28.6353 45.7271,28.802 47.5,27C 46.8971,24.9286 45.5638,23.7619 43.5,23.5C 49.8087,18.2834 57.142,15.6168 65.5,15.5 Z"/></g>
<g><path style="opacity:1" fill="#efefef" d="M 50.5,26.5 C 48.4362,26.2381 47.1029,25.0714 46.5,23C 47.4239,21.5108 48.4239,21.3441 49.5,22.5C 50.2458,23.7362 50.5792,25.0695 50.5,26.5 Z"/></g>
<g><path style="opacity:1" fill="#eeeeee" d="M 59.5,17.5 C 60.5,17.5 61.5,17.5 62.5,17.5C 62.5,18.8333 62.5,20.1667 62.5,21.5C 61.5,21.5 60.5,21.5 59.5,21.5C 59.5,20.1667 59.5,18.8333 59.5,17.5 Z"/></g>
<g><path style="opacity:1" fill="#e5e5e5" d="M 54.5,18.5 C 57.5,18.1667 58.8333,19.5 58.5,22.5C 57.1779,22.67 56.0113,22.3366 55,21.5C 54.5172,22.448 54.3505,23.448 54.5,24.5C 53.5,24.5 52.5,24.5 51.5,24.5C 51.67,23.1779 51.3366,22.0113 50.5,21C 51.5358,19.3831 52.7025,19.2164 54,20.5C 54.4643,19.9056 54.631,19.2389 54.5,18.5 Z"/></g>
<g><path style="opacity:1" fill="#e8e8e8" d="M 63.5,16.5 C 64.5,16.5 65.5,16.5 66.5,16.5C 66.5,18.1667 66.5,19.8333 66.5,21.5C 65.5,21.5 64.5,21.5 63.5,21.5C 63.5,19.8333 63.5,18.1667 63.5,16.5 Z"/></g>
<g><path style="opacity:1" fill="#464646" d="M 50.5,16.5 C 49.4732,17.8478 48.1398,18.3478 46.5,18C 47.5634,16.8118 48.8967,16.3118 50.5,16.5 Z"/></g>
<g><path style="opacity:1" fill="#414141" d="M 92.5,16.5 C 94.8421,16.5041 96.8421,17.3375 98.5,19C 96.1788,19.008 94.1788,18.1747 92.5,16.5 Z"/></g>
<g><path style="opacity:1" fill="#464646" d="M 76.5,15.5 C 85.2324,15.4094 92.8991,18.0761 99.5,23.5C 98.5041,23.4142 97.6708,23.7476 97,24.5C 94.2979,20.6157 92.7979,21.2824 92.5,26.5C 87.6126,24.76 82.6126,23.4267 77.5,22.5C 77.5,22.1667 77.5,21.8333 77.5,21.5C 79.256,20.4479 79.9227,18.7812 79.5,16.5C 78.5,16.5 77.5,16.5 76.5,16.5C 76.5,18.1667 76.5,19.8333 76.5,21.5C 75.1667,19.5 75.1667,17.5 76.5,15.5 Z"/></g>
<g><path style="opacity:1" fill="#dfdfdf" d="M 85.5,18.5 C 87.605,19.9909 89.7717,20.6576 92,20.5C 92.4848,23.1715 91.3181,24.5048 88.5,24.5C 88.6713,21.2027 88.0046,20.8694 86.5,23.5C 84.2957,22.218 83.9624,20.5514 85.5,18.5 Z"/></g>
<g><path style="opacity:1" fill="#d9d9d9" d="M 77.5,21.5 C 77.1667,21.5 76.8333,21.5 76.5,21.5C 76.5,19.8333 76.5,18.1667 76.5,16.5C 77.5,16.5 78.5,16.5 79.5,16.5C 79.9227,18.7812 79.256,20.4479 77.5,21.5 Z"/></g>
<g><path style="opacity:1" fill="#efefef" d="M 80.5,17.5 C 81.5,17.5 82.5,17.5 83.5,17.5C 83.5,18.8333 83.5,20.1667 83.5,21.5C 82.5,21.5 81.5,21.5 80.5,21.5C 80.5,20.1667 80.5,18.8333 80.5,17.5 Z"/></g>
<g><path style="opacity:1" fill="#5a5a5a" d="M 92.5,16.5 C 78.5,12.5 64.5,12.5 50.5,16.5C 60.9388,11.3876 71.9388,10.2209 83.5,13C 86.865,13.5053 89.865,14.672 92.5,16.5 Z"/></g>
<g><path style="opacity:1" fill="#767676" d="M 65.5,15.5 C 69.1667,14.1667 72.8333,14.1667 76.5,15.5C 75.1667,17.5 75.1667,19.5 76.5,21.5C 76.8333,21.5 77.1667,21.5 77.5,21.5C 77.5,21.8333 77.5,22.1667 77.5,22.5C 74.1667,22.5 70.8333,22.5 67.5,22.5C 67.8333,21.8333 68.1667,21.1667 68.5,20.5C 68.0276,18.4687 67.0276,16.8021 65.5,15.5 Z"/></g>
<g><path style="opacity:1" fill="#fdfdfd" d="M 72.5,16.5 C 73.5862,16.62 74.2528,17.2867 74.5,18.5C 74.1667,19.1667 73.8333,19.8333 73.5,20.5C 72.5713,19.3112 72.238,17.9778 72.5,16.5 Z"/></g>
<g><path style="opacity:1" fill="#fdfdfd" d="M 68.5,20.5 C 68.238,19.0222 68.5713,17.6888 69.5,16.5C 69.8333,17.1667 70.1667,17.8333 70.5,18.5C 70.2528,19.7133 69.5862,20.38 68.5,20.5 Z"/></g>
<g><path style="opacity:1" fill="#e2e2e2" d="M 55.5,117.5 C 54.8902,116.609 54.5569,115.609 54.5,114.5C 55.4674,113.194 56.8007,112.527 58.5,112.5C 58.7409,115.034 57.7409,116.7 55.5,117.5 Z"/></g>
<g><path style="opacity:1" fill="#555555" d="M 40.5,113.5 C 43.3311,114.079 45.6644,115.412 47.5,117.5C 44.6689,116.921 42.3356,115.588 40.5,113.5 Z"/></g>
<g><path style="opacity:1" fill="#515151" d="M 110.5,92.5 C 110.733,94.0618 111.4,95.3951 112.5,96.5C 108.101,95.4447 107.434,96.778 110.5,100.5C 108.983,100.489 107.816,99.8228 107,98.5C 105.198,100.273 105.365,101.94 107.5,103.5C 105.983,103.489 104.816,102.823 104,101.5C 102.161,104.217 102.994,105.884 106.5,106.5C 102.816,111.01 98.1493,114.01 92.5,115.5C 84.1707,120.18 75.1707,121.68 65.5,120C 66.4061,118.301 66.7394,116.467 66.5,114.5C 65.5,114.5 64.5,114.5 63.5,114.5C 63.5,116.167 63.5,117.833 63.5,119.5C 60.5049,119.706 57.8383,119.04 55.5,117.5C 57.7409,116.7 58.7409,115.034 58.5,112.5C 56.8007,112.527 55.4674,113.194 54.5,114.5C 54.5,113.5 54.5,112.5 54.5,111.5C 51.858,111.488 50.5246,112.821 50.5,115.5C 48.6203,115.771 47.287,115.104 46.5,113.5C 41.1984,111.704 36.8651,108.537 33.5,104C 36.934,102.99 37.7673,101.157 36,98.5C 35.1841,99.8228 34.0174,100.489 32.5,100.5C 33.9418,99.1805 34.6085,97.5138 34.5,95.5C 37.8333,98.1667 40.8333,101.167 43.5,104.5C 45.0269,104.427 46.0269,105.094 46.5,106.5C 54.3747,110.233 62.7081,112.566 71.5,113.5C 79.8178,112.5 87.8178,110.5 95.5,107.5C 96.2623,105.738 97.5956,104.738 99.5,104.5C 103.195,100.474 106.862,96.4741 110.5,92.5 Z"/></g>
<g><path style="opacity:1" fill="#f7f7f7" d="M 72.5,114.5 C 73.6491,114.791 74.3158,115.624 74.5,117C 74.1667,117.833 73.8333,118.667 73.5,119.5C 72.5481,117.955 72.2148,116.288 72.5,114.5 Z"/></g>
<g><path style="opacity:1" fill="#e3e3e3" d="M 67.5,114.5 C 68.5,114.5 69.5,114.5 70.5,114.5C 70.5,116.167 70.5,117.833 70.5,119.5C 69.5,119.5 68.5,119.5 67.5,119.5C 67.5,117.833 67.5,116.167 67.5,114.5 Z"/></g>
<g><path style="opacity:1" fill="#e0e0e0" d="M 59.5,113.5 C 60.5,113.5 61.5,113.5 62.5,113.5C 62.5,115.167 62.5,116.833 62.5,118.5C 58.5163,118.528 57.5163,116.861 59.5,113.5 Z"/></g>
<g><path style="opacity:1" fill="#e3e3e3" d="M 92.5,115.5 C 91.0413,115.567 89.7079,115.234 88.5,114.5C 88.5,113.5 88.5,112.5 88.5,111.5C 91.142,111.488 92.4754,112.821 92.5,115.5 Z"/></g>
<g><path style="opacity:1" fill="#ebebeb" d="M 88.5,114.5 C 86.0209,118.462 84.6875,117.796 84.5,112.5C 86.1993,112.527 87.5326,113.194 88.5,114.5 Z"/></g>
<g><path style="opacity:1" fill="#e7e7e7" d="M 54.5,114.5 C 53.2921,115.234 51.9587,115.567 50.5,115.5C 50.5246,112.821 51.858,111.488 54.5,111.5C 54.5,112.5 54.5,113.5 54.5,114.5 Z"/></g>
<g><path style="opacity:1" fill="#e9e9e9" d="M 95.5,107.5 C 97.6807,107.284 99.3474,108.117 100.5,110C 98.7271,111.802 97.0605,111.635 95.5,109.5C 95.5,108.833 95.5,108.167 95.5,107.5 Z"/></g>
<g><path style="opacity:1" fill="#e3e3e3" d="M 95.5,109.5 C 95.5394,110.583 95.8728,111.583 96.5,112.5C 94.2539,115.297 92.9206,114.797 92.5,111C 92.8942,108.72 93.8942,108.22 95.5,109.5 Z"/></g>
<g><path style="opacity:1" fill="#e3e3e3" d="M 46.5,113.5 C 46.795,111.577 47.6283,109.91 49,108.5C 50.8272,110.414 50.8272,112.414 49,114.5C 48.3292,113.748 47.4959,113.414 46.5,113.5 Z"/></g>
<g><path style="opacity:1" fill="#494949" d="M 90.5,106.5 C 86.8862,109.604 82.8862,110.604 78.5,109.5C 82.5957,108.809 86.5957,107.809 90.5,106.5 Z"/></g>
<g><path style="opacity:1" fill="#454545" d="M 54.5,106.5 C 57.6988,107.899 61.0321,108.899 64.5,109.5C 60.3441,110.53 56.3441,109.697 52.5,107C 53.0944,106.536 53.7611,106.369 54.5,106.5 Z"/></g>
<g><path style="opacity:1" fill="#e6e6e6" d="M 46.5,106.5 C 47.5009,107.789 47.3342,109.122 46,110.5C 44.7025,111.784 43.5358,111.617 42.5,110C 43.5323,108.373 44.8656,107.207 46.5,106.5 Z"/></g>
<g><path style="opacity:1" fill="#ededed" d="M 99.5,104.5 C 103.006,105.116 103.839,106.783 102,109.5C 99.7097,108.172 98.8764,106.505 99.5,104.5 Z"/></g>
<g><path style="opacity:1" fill="#ececec" d="M 43.5,104.5 C 43.7163,106.681 42.883,108.347 41,109.5C 39.1608,106.783 39.9941,105.116 43.5,104.5 Z"/></g>
<g><path style="opacity:1" fill="#f2f2f2" d="M 38.5,101.5 C 41.0524,103.163 40.8857,104.83 38,106.5C 36.198,104.727 36.3647,103.06 38.5,101.5 Z"/></g>
<g><path style="opacity:1" fill="#4a4a4a" d="M 44.5,101.5 C 46.8525,102.34 48.8525,103.674 50.5,105.5C 47.8021,105.155 45.8021,103.822 44.5,101.5 Z"/></g>
<g><path style="opacity:1" fill="#4e4e4e" d="M 106.5,110.5 C 103.642,114.01 99.9757,116.343 95.5,117.5C 98.894,114.779 102.561,112.446 106.5,110.5 Z"/></g>
<g><path style="opacity:1" fill="#494949" d="M 54.5,114.5 C 54.5569,115.609 54.8902,116.609 55.5,117.5C 53.4471,117.598 51.7804,116.931 50.5,115.5C 51.9587,115.567 53.2921,115.234 54.5,114.5 Z"/></g>
<g><path style="opacity:1" fill="#e1e1e1" d="M 80.5,113.5 C 81.5,113.5 82.5,113.5 83.5,113.5C 83.5,115.167 83.5,116.833 83.5,118.5C 81.1667,118.5 78.8333,118.5 76.5,118.5C 76.5898,113.611 77.7565,113.277 80,117.5C 80.49,116.207 80.6567,114.873 80.5,113.5 Z"/></g>
<g><path style="opacity:1" fill="#2b2b2b" d="M 111.5,110.5 C 108,114.746 103.667,117.746 98.5,119.5C 102.651,116.256 106.984,113.256 111.5,110.5 Z"/></g>
<g><path style="opacity:1" fill="#303030" d="M 32.5,111.5 C 37.8414,114.836 43.1748,118.17 48.5,121.5C 42.1937,119.682 36.8603,116.349 32.5,111.5 Z"/></g>
<g><path style="opacity:1" fill="#4a4a4a" d="M 47.5,117.5 C 55.2067,120.425 63.2067,122.092 71.5,122.5C 79.7933,122.092 87.7933,120.425 95.5,117.5C 93.7274,118.892 91.7274,120.059 89.5,121C 77.8158,124.257 66.1492,124.257 54.5,121C 51.8261,120.33 49.4927,119.163 47.5,117.5 Z"/></g>
<g><path style="opacity:1" fill="#2b2b2b" d="M 98.5,119.5 C 96.9674,121.245 94.9674,122.245 92.5,122.5C 94.0326,120.755 96.0326,119.755 98.5,119.5 Z"/></g>
<g><path style="opacity:1" fill="#2b2b2b" d="M 48.5,121.5 C 63.0549,126.419 77.7215,126.753 92.5,122.5C 85.947,125.548 78.947,126.882 71.5,126.5C 66.1198,126.464 60.7865,125.964 55.5,125C 52.8261,124.33 50.4927,123.163 48.5,121.5 Z"/></g>
</svg>
