<svg width="280" height="280" viewBox="0 0 280 280" fill="none" xmlns="http://www.w3.org/2000/svg">
    <path
        d="M178.945 257.411C174.173 259.043 169.075 260.327 163.646 261.203C160.927 261.643 158.122 261.983 155.237 262.208C151.792 262.481 148.225 262.595 144.54 262.544C139.069 262.464 133.944 262.256 129.137 261.924C113.99 260.881 102.005 258.644 92.3777 255.625C87.3495 254.049 82.9654 252.255 79.1077 250.309C76.6663 249.08 74.4396 247.788 72.393 246.444C69.5672 244.595 67.0877 242.656 64.8749 240.665C59.8016 236.09 56.1413 231.242 52.9692 226.581C52.1208 225.334 51.307 224.098 50.5105 222.886C30.2002 191.968 36.8664 142.6 66.0869 141.378C82.8996 140.672 95.9827 147.005 109.014 151.961C118.627 155.618 128.212 158.527 139.239 157.301C142.705 156.916 146.178 156.22 149.648 155.344C149.655 155.341 149.662 155.341 149.669 155.337C149.818 155.299 149.97 155.264 150.116 155.223C155.016 153.962 159.909 152.352 164.774 150.742C165.775 150.413 166.78 150.08 167.78 149.751C168.833 149.409 169.882 149.066 170.932 148.73C186.158 143.882 201.018 140.564 214.811 149.862C245.984 170.882 235.059 238.227 178.945 257.411Z"
        fill="#E2E1F0" />
    <path
        d="M54.5796 194.438L53.094 195.954L52.481 196.581L50.0431 194.019C50.0396 194.015 50.0362 194.008 50.0327 194.005L38.7989 182.193L38.7954 182.189L41.1087 179.869L52.8377 192.554L52.8793 192.595L54.5796 194.438Z"
        fill="#9D78B4" />
    <path
        d="M63.4618 190.171C63.448 193.35 60.6742 196.893 57.5125 199.611C57.4882 199.632 57.4605 199.653 57.4363 199.677C57.4051 199.705 57.3739 199.736 57.3428 199.757C57.1766 199.899 57.0069 200.041 56.8372 200.176C53.5093 202.877 49.939 204.598 48.7754 204.023C47.5391 203.41 52.2349 196.366 50.0428 194.019C50.0394 194.015 50.0359 194.008 50.0325 194.005C50.0325 194.005 50.2021 193.627 50.4896 193.212C51.0056 192.464 51.8955 191.588 52.8375 192.554L52.879 192.595C54.3612 194.199 63.4688 188.433 63.4618 190.171Z"
        fill="#9D78B4" />
    <path opacity="0.23"
        d="M56.8374 200.176C53.5095 202.877 49.9392 204.598 48.7756 204.023C47.5393 203.41 52.2351 196.366 50.0431 194.019C50.0396 194.015 50.0361 194.008 50.0327 194.005L38.7988 182.193L40.9286 181.375C39.8827 182.265 49.07 192.076 52.481 194.393C53.0178 194.756 53.1009 195.601 52.9693 196.501C52.668 198.517 50.0985 201.786 51.037 201.938C52.2455 202.132 55.2029 201.405 56.8374 200.176Z"
        fill="#593E6B" />
    <path
        d="M70.7513 23.4121L69.6986 23.9696C69.5774 24.032 69.4942 24.1462 69.4665 24.2813L69.4111 24.5549L69.9167 24.6622L70.7513 23.4121Z"
        fill="#43618F" />
    <path
        d="M104.467 46.5621C104.516 46.2713 104.329 45.9457 104.187 45.6964C104.045 45.4471 103.941 46.4167 103.986 46.531C104.031 46.6453 104.062 46.7422 104.097 46.7665C104.135 46.7907 104.245 46.7768 104.256 46.7665C104.266 46.7561 104.467 46.5621 104.467 46.5621Z"
        fill="#43608C" />
    <path
        d="M183.021 97.0313C184.236 88.0761 194.798 82.7605 197.094 86.2373C199.39 89.7141 198.801 92.8654 198.801 92.8654C202.081 94.2437 203.133 103.888 186.664 103.888C170.194 103.888 183.021 97.0313 183.021 97.0313Z"
        fill="#192440" />
    <path
        d="M180.41 97.7205C182.332 97.0313 183.021 97.0313 183.021 97.0313C185.133 98.8286 186.324 101.128 186.664 103.888L185.711 105.595L180.413 104.12V97.7205H180.41Z"
        fill="#8F4B26" />
    <path
        d="M34.0232 156.075L33.6284 162.81C33.6284 162.81 15.2124 177.202 14.776 174.314C14.7483 174.127 14.7691 173.895 14.8384 173.618C14.8384 173.615 14.8384 173.615 14.8384 173.611C15.8253 169.625 26.235 156.93 32.9947 155.254C33.0743 155.233 33.154 155.216 33.2336 155.199L33.4795 155.251L34.0232 156.075Z"
        fill="#593E6B" />
    <path
        d="M64.8159 94.7008C65.602 90.1505 83.2319 81.7528 83.2319 81.7528L82.006 92.6023C82.006 92.6023 69.4528 99.2962 69.2762 99.3377C69.0996 99.3827 65.1207 96.4946 65.1207 96.4946L64.8159 94.7008Z"
        fill="#9E5F44" />
    <path
        d="M102.676 48.775C102.545 49.7585 97.6896 57.1727 96.6992 58.7483C95.7123 60.3205 93.032 79.3495 93.032 79.3495C93.032 79.3495 91.5429 83.3734 90.317 85.3854C89.756 86.31 85.8117 89.2293 81.7531 91.8473C76.9846 94.9224 72.0602 97.5716 72.2957 96.0583C72.3858 95.4938 72.7044 93.8073 73.1545 91.4595C74.9449 82.1718 78.8476 62.568 78.9896 61.5914C79.1628 60.3655 79.3844 57.8272 77.4971 53.4119C77.4971 53.4119 79.4467 50.5446 79.7099 50.2814C79.9731 50.0217 81.2198 47.5941 82.0059 46.673C82.7954 45.7553 84.8282 45.4263 86.0091 45.4263C87.1899 45.4263 93.7523 46.0843 94.2786 46.2817C94.8015 46.4756 102.808 47.788 102.676 48.775Z"
        fill="#C26E4A" />
    <path
        d="M88.1011 53.3009L89.0672 53.6853C89.0672 53.6853 88.6378 53.9692 88.5824 53.9935C88.5305 54.0177 88.25 53.9104 88.198 53.8376C88.1461 53.7615 88.1011 53.3009 88.1011 53.3009Z"
        fill="#43608C" />
    <path
        d="M81.7531 91.8472C76.9846 94.9223 72.0602 97.5715 72.2957 96.0582C72.3858 95.4937 72.7044 93.8073 73.1545 91.4594C75.6132 92.1035 79.9974 90.6144 81.0016 90.1262C81.5453 89.8595 81.7981 90.7114 81.7531 91.8472Z"
        fill="#7D4429" />
    <path
        d="M157.267 82.2341C142.636 82.8886 138.83 100.28 133.448 106.97C128.067 113.664 121.113 118.256 119.406 120.486C117.699 122.716 116.913 124.752 114.025 125.867C111.137 126.983 104.837 127.246 102.019 129.344C99.1963 131.443 96.5714 135.446 96.703 138.005C96.8346 140.564 124.348 155.867 136.42 151.684C148.492 147.497 165.99 169.719 174.214 167.094C182.439 164.469 173.207 157.034 176.095 150.209C178.983 143.383 187.751 126.899 188.693 121.996C190.006 115.17 188.298 104.872 181.805 101.918C182.529 92.9312 167.631 81.7701 157.267 82.2341Z"
        fill="#192440" />
    <path
        d="M133.711 127.97C131.679 131.907 127.163 133.088 124.14 135.844C121.117 138.601 120.327 141.821 120.982 143.885C121.636 145.949 132.486 148.418 132.486 148.418C132.486 148.418 137.517 146.112 137.583 145.669C137.649 145.225 140.797 139.387 140.928 139.058C141.06 138.729 139.813 133.6 139.682 133.441C139.55 133.282 133.711 127.97 133.711 127.97Z"
        fill="#0E172D" />
    <path
        d="M102.13 184.769C94.2548 185.295 90.2655 182.22 90.2655 182.22C88.2397 178.747 85.6667 175.149 82.8894 171.496C82.8859 171.492 82.8859 171.489 82.8859 171.489C73.8684 159.614 62.7419 147.14 61.5368 136.301C60.7195 128.96 61.6303 118.065 62.6934 109.266C63.6873 101.076 64.8162 94.7043 64.8162 94.7043C65.256 99.033 82.3042 92.4049 93.0324 79.3495C92.1078 84.0834 91.1105 89.2501 90.2343 94.3961C88.8007 102.849 87.696 111.25 87.786 117.601C87.7826 117.619 87.786 117.636 87.786 117.653C87.8172 119.859 87.9938 121.819 88.3539 123.443C88.6448 124.777 89.0604 125.885 89.6179 126.723C95.3076 135.252 102.898 141.6 110.891 143.442C110.922 143.449 110.95 143.456 110.977 143.459C111.93 143.678 112.889 143.83 113.852 143.913C122.918 144.703 110.004 184.246 102.13 184.769Z"
        fill="#FF8238" />
    <path
        d="M52.2803 227.464C52.4326 227.2 52.6196 226.951 52.8482 226.709C52.6577 226.917 52.4673 227.173 52.2803 227.464Z"
        fill="#FF8238" />
    <path
        d="M104.027 160.76C98.2786 173.31 94.3655 181.379 90.2653 182.22C88.2395 178.747 85.6665 175.149 82.8892 171.495C82.8857 171.492 82.8857 171.488 82.8857 171.488C88.3503 174.009 99.5599 170.238 104.027 160.76Z"
        fill="#CA6734" />
    <path
        d="M171.157 203.334V203.337C169.9 217.757 167.264 233.791 162.368 247.3C161.287 250.285 160.093 253.149 158.78 255.843C157.686 258.09 156.508 260.22 155.237 262.208C151.792 262.481 148.225 262.596 144.54 262.544C139.069 262.464 133.944 262.256 129.137 261.924C113.99 260.881 102.005 258.644 92.3778 255.625C87.3495 254.049 82.9654 252.255 79.1077 250.309C76.6663 249.08 74.4396 247.788 72.393 246.444C69.5672 244.595 67.0877 242.656 64.8749 240.665C59.8017 236.09 56.1413 231.242 52.9692 226.581C56.6677 222.882 60.1618 219.219 63.462 215.61C63.8741 215.16 64.2793 214.713 64.6844 214.266C65.4948 213.37 66.2947 212.48 67.0808 211.59C67.7041 210.883 68.324 210.177 68.9335 209.477C70.1906 208.037 71.413 206.61 72.6042 205.194C72.6562 205.135 72.7047 205.072 72.7566 205.013C92.0592 182.047 103.258 162.409 109.014 151.961C111.815 146.87 113.329 143.961 113.852 143.913C114.703 143.837 118.177 143.854 122.949 144.709C123.662 144.838 124.317 144.973 124.982 145.135C125.955 145.367 126.945 145.641 128.15 145.98L128.306 145.921C132.655 147.147 137.774 149.135 142.556 152.103C143.224 152.518 143.889 152.951 144.54 153.405C144.54 153.405 146.819 154.125 150.033 155.195C150.06 155.206 150.088 155.216 150.116 155.223C157.204 157.588 168.746 161.626 170.544 163.423C171.087 163.967 171.6 167.253 171.884 172.382V172.385C172.289 179.758 172.23 190.95 171.157 203.334Z"
        fill="#FF8238" />
    <path
        d="M162.368 247.3C161.287 250.285 160.093 253.148 158.78 255.843C157.686 258.09 156.509 260.22 155.238 262.208C151.792 262.481 148.225 262.595 144.541 262.543C149.333 253.883 150.916 239.02 148.094 229.226C148.094 229.226 154.095 231.488 155.321 231.491C156.547 231.495 161.093 240.935 161.093 241.842C161.093 242.199 161.665 244.477 162.368 247.3Z"
        fill="#CA6734" />
    <path
        d="M151.559 163.073C151.033 163.205 138.57 171.395 131.218 175.145C123.866 178.899 116.954 182.411 116.954 182.411C116.954 182.411 118.488 177.902 120.13 171.689C121.771 165.477 124.067 150.804 124.853 145.291C124.853 145.291 124.898 145.236 124.981 145.135C125.636 145.291 126.301 145.468 127.031 145.669C127.385 145.766 127.755 145.869 128.15 145.98L128.306 145.921C129.784 146.337 131.353 146.842 132.967 147.445C136.097 148.612 139.401 150.143 142.556 152.103C146.663 156.861 151.878 162.994 151.559 163.073Z"
        fill="white" />
    <path
        d="M132.967 147.445C132.784 147.885 132.579 148.286 132.486 148.418C132.268 148.726 128.507 152.355 128.507 152.355L126.055 147.455C126.055 147.455 126.627 146.354 127.032 145.668C127.385 145.765 127.755 145.869 128.15 145.98L128.306 145.921C129.785 146.337 131.353 146.842 132.967 147.445Z"
        fill="#5E6576" />
    <path
        d="M121.501 150.773C118.357 162.416 111.94 189.229 105.277 198.108C110.614 196.401 119.077 180.26 119.077 180.26C119.077 180.26 123.967 166.218 123.984 161.758C124.002 157.297 121.501 150.773 121.501 150.773Z"
        fill="#D66A3A" />
    <path
        d="M143.193 170.619L142.736 172.323C142.736 172.327 142.736 172.327 142.736 172.327C136.811 176.299 120.677 187.83 105.277 209.09C93.4513 225.421 81.8193 245.07 79.1078 250.309C76.6664 249.08 74.4397 247.788 72.3931 246.444C76.0673 238.864 84.0529 227.762 91.893 216.528C96.478 209.955 101.132 203.393 105.277 197.693C112.117 188.291 117.578 181.223 119.081 180.264C123.125 177.684 124.964 173.653 131 171.492C133.857 170.467 136.742 170.218 138.989 170.242C140.492 170.252 141.711 170.391 142.442 170.495C142.923 170.564 143.193 170.619 143.193 170.619Z"
        fill="#D66A3A" />
    <path opacity="0.17"
        d="M130.81 174.027C139.135 172.784 144.087 176.195 145.593 176.721C147.096 177.248 144.648 168.673 144.648 168.673C144.648 168.673 142.899 169.023 140.887 169.459C138.871 169.896 130.81 174.027 130.81 174.027Z"
        fill="#351F15" />
    <path
        d="M175.222 263.731L180.41 236.734C180.41 236.734 180.41 236.731 180.406 236.727C180.406 236.724 180.406 236.724 180.403 236.72C180.403 236.717 180.403 236.713 180.399 236.71C180.396 236.699 180.392 236.692 180.389 236.682C179.89 235.266 169.145 204.625 169.145 186.168C169.145 186.168 168.372 187.331 167.088 189.16C166.835 187.162 166.644 185.191 166.54 183.276C166.236 178.054 166.527 173.23 167.687 169.265C168.341 167.014 169.276 165.04 170.544 163.423C173.006 164.067 175.35 165.705 177.518 168.119C178.955 169.719 180.32 171.661 181.591 173.878C183.997 178.065 186.075 183.238 187.727 188.959C191.706 202.745 196.215 257.817 175.222 263.731Z"
        fill="#FF8238" />
    <path
        d="M180.403 236.72C180.209 236.474 173.989 228.541 173.342 227.637C172.687 226.719 170.194 217.927 169.536 216.219C168.882 214.516 166.388 199.292 166.825 197.454C167.261 195.618 166.426 184.651 166.426 184.651L166.541 183.276L167.687 169.265C168.341 167.014 169.276 165.04 170.544 163.423C173.006 164.067 175.35 165.705 177.518 168.119C176.884 170.318 175.929 172.905 174.526 175.928C167.756 190.538 176.791 225.528 180.389 236.682C180.392 236.692 180.396 236.699 180.399 236.71C180.403 236.713 180.403 236.717 180.403 236.72Z"
        fill="#CA6734" />
    <path
        d="M164.944 137.745C164.944 137.745 155.3 161.498 146.964 165.501C138.633 169.504 132.597 168.06 128.33 167.274C124.067 166.484 122.558 153.82 126.166 151.067C128.005 149.661 130.443 146.839 132.846 143.757C134.716 141.354 136.565 138.791 138.089 136.623C138.442 136.121 138.778 135.64 139.093 135.186L164.944 137.745Z"
        fill="#C26E4A" />
    <path
        d="M147.754 139.539L146.082 141.987C143.574 142.628 137.597 145.703 132.846 143.757C134.716 141.354 136.565 138.791 138.089 136.623L147.754 139.539Z"
        fill="#7D4429" />
    <path
        d="M141.41 99.6457C129.861 116.091 131.437 124.053 132.399 128.253C133.362 132.454 138.522 140.415 147.446 142.337C156.37 144.263 173.165 137.527 173.342 137.264C173.518 137.001 177.542 128.953 178.065 126.764C178.592 124.576 178.328 111.018 176.753 110.319C175.177 109.619 166.343 103.846 165.554 103.493C164.764 103.14 159.691 99.8188 159.168 99.6422C158.642 99.4656 157.069 92.0306 157.069 92.0306C157.069 92.0306 153.831 89.842 153.395 89.6689C152.959 89.4923 149.108 94.9187 149.108 94.9187L141.41 99.6457Z"
        fill="#C26E4A" />
    <path
        d="M156.02 88.9279C155.366 93.454 147.557 99.296 139.221 99.9505L150.441 86.6978L156.02 88.9279Z"
        fill="#192440" />
    <path
        d="M156.02 88.9279C154.053 95.8816 154.905 105.003 163.764 107.628C163.566 111.631 168.158 113.207 169.997 113.335C171.836 113.463 169.796 124.88 169.211 128.295C168.03 135.183 159.494 137.271 156.678 140.959C152.873 145.946 150.84 151.195 146.573 152.833C142.307 154.475 153.091 156.729 157.409 159.243C161.727 161.758 173.868 142.86 174.72 141.091C175.572 139.318 181.283 122.259 180.299 118.453C179.316 114.647 177.74 107.036 177.214 106.052C176.687 105.069 173.276 101.918 172.622 101.526C171.964 101.131 156.02 88.9279 156.02 88.9279Z"
        fill="#192440" />
    <path d="M165.665 114.125C178.311 103.888 184.036 131.644 166.977 126.92L165.665 114.125Z"
        fill="#C26E4A" />
    <path
        d="M69.7923 24.5619L88.2534 53.443C88.385 53.6508 88.6482 53.727 88.8698 53.6231L104.093 46.4824C104.325 46.3751 104.412 46.0911 104.287 45.8695L86.7262 15.3123C86.5565 15.018 86.186 14.9141 85.8882 15.0768L69.9793 23.8381C69.7161 23.9801 69.633 24.3126 69.7923 24.5619Z"
        fill="#6F8AB3" />
    <path
        d="M69.7923 24.5619L88.2534 53.443C88.385 53.6508 88.6482 53.727 88.8698 53.6231L104.093 46.4824C104.325 46.3751 104.412 46.0911 104.287 45.8695L86.7262 15.3123C86.5565 15.018 86.186 14.9141 85.8882 15.0768L69.9793 23.8381C69.7161 23.9801 69.633 24.3126 69.7923 24.5619Z"
        fill="#6F8AB3" />
    <path
        d="M69.7923 24.5619L88.2534 53.443C88.385 53.6508 88.6482 53.727 88.8698 53.6231L104.093 46.4824C104.325 46.3751 104.412 46.0911 104.287 45.8695L86.7262 15.3123C86.5565 15.018 86.186 14.9141 85.8882 15.0768L69.9793 23.8381C69.7161 23.9801 69.633 24.3126 69.7923 24.5619Z"
        fill="#6F8AB3" />
    <path
        d="M69.7923 24.5619L88.2534 53.443C88.385 53.6508 88.6482 53.727 88.8698 53.6231L104.093 46.4824C104.325 46.3751 104.412 46.0911 104.287 45.8695L86.7262 15.3123C86.5565 15.018 86.186 14.9141 85.8882 15.0768L69.9793 23.8381C69.7161 23.9801 69.633 24.3126 69.7923 24.5619Z"
        fill="#6F8AB3" />
    <path
        d="M73.172 24.4512L84.9565 17.9616C85.3305 17.7538 85.8049 17.8889 86.0127 18.2629L99.8161 42.6525C100.041 43.0473 99.8784 43.5529 99.4663 43.7468L88.5095 48.8859C88.1528 49.0521 87.7269 48.9309 87.5156 48.5984L72.8811 25.5593C72.6457 25.175 72.7773 24.6694 73.172 24.4512Z"
        fill="#6F8AB3" />
    <path
        d="M73.172 24.4512L84.9565 17.9616C85.3305 17.7538 85.8049 17.8889 86.0127 18.2629L99.8161 42.6525C100.041 43.0473 99.8784 43.5529 99.4663 43.7468L88.5095 48.8859C88.1528 49.0521 87.7269 48.9309 87.5156 48.5984L72.8811 25.5593C72.6457 25.175 72.7773 24.6694 73.172 24.4512Z"
        fill="#6F8AB3" />
    <path
        d="M73.172 24.4512L84.9565 17.9616C85.3305 17.7538 85.8049 17.8889 86.0127 18.2629L99.8161 42.6525C100.041 43.0473 99.8784 43.5529 99.4663 43.7468L88.5095 48.8859C88.1528 49.0521 87.7269 48.9309 87.5156 48.5984L72.8811 25.5593C72.6457 25.175 72.7773 24.6694 73.172 24.4512Z"
        fill="#6F8AB3" />
    <path
        d="M73.172 24.4512L84.9565 17.9616C85.3305 17.7538 85.8049 17.8889 86.0127 18.2629L99.8161 42.6525C100.041 43.0473 99.8784 43.5529 99.4663 43.7468L88.5095 48.8859C88.1528 49.0521 87.7269 48.9309 87.5156 48.5984L72.8811 25.5593C72.6457 25.175 72.7773 24.6694 73.172 24.4512Z"
        fill="white" />
    <path
        d="M99.664 43.6118C99.657 43.598 99.6501 43.5876 99.6432 43.5737L85.8398 19.1875C85.6286 18.8135 85.1576 18.6785 84.7801 18.8863L72.9957 25.3758C72.9403 25.407 72.8918 25.4417 72.8468 25.4832C72.6632 25.1127 72.8018 24.6556 73.1723 24.4512L84.9568 17.9616C85.3308 17.7573 85.8017 17.8889 86.013 18.2629L99.8198 42.6491C100.003 42.9746 99.9271 43.3729 99.664 43.6118Z"
        fill="#6F8AB3" />
    <path
        d="M99.664 43.6118C99.657 43.598 99.6501 43.5876 99.6432 43.5737L85.8398 19.1875C85.6286 18.8135 85.1576 18.6785 84.7801 18.8863L72.9957 25.3758C72.9403 25.407 72.8918 25.4417 72.8468 25.4832C72.6632 25.1127 72.8018 24.6556 73.1723 24.4512L84.9568 17.9616C85.3308 17.7573 85.8017 17.8889 86.013 18.2629L99.8198 42.6491C100.003 42.9746 99.9271 43.3729 99.664 43.6118Z"
        fill="#6F8AB3" />
    <path
        d="M99.664 43.6118C99.657 43.598 99.6501 43.5876 99.6432 43.5737L85.8398 19.1875C85.6286 18.8135 85.1576 18.6785 84.7801 18.8863L72.9957 25.3758C72.9403 25.407 72.8918 25.4417 72.8468 25.4832C72.6632 25.1127 72.8018 24.6556 73.1723 24.4512L84.9568 17.9616C85.3308 17.7573 85.8017 17.8889 86.013 18.2629L99.8198 42.6491C100.003 42.9746 99.9271 43.3729 99.664 43.6118Z"
        fill="#6F8AB3" />
    <path
        d="M99.664 43.6118C99.657 43.598 99.6501 43.5876 99.6432 43.5737L85.8398 19.1875C85.6286 18.8135 85.1576 18.6785 84.7801 18.8863L72.9957 25.3758C72.9403 25.407 72.8918 25.4417 72.8468 25.4832C72.6632 25.1127 72.8018 24.6556 73.1723 24.4512L84.9568 17.9616C85.3308 17.7573 85.8017 17.8889 86.013 18.2629L99.8198 42.6491C100.003 42.9746 99.9271 43.3729 99.664 43.6118Z"
        fill="#D1D3D9" />
    <path
        d="M88.4438 53.7408C88.468 53.7789 88.4784 53.8274 88.468 53.8724L88.0733 55.9363L87.9382 56.6289C87.7304 56.5597 87.5746 56.3865 87.443 56.1822L69.1031 27.495C68.975 27.2976 68.93 27.0552 68.975 26.8232L69.4113 24.5515C69.4425 24.3887 69.6572 24.3472 69.7472 24.4857L88.4438 53.7408Z"
        fill="#43618F" />
    <path opacity="0.27"
        d="M86.0021 53.9312C85.9744 54.4783 82.0751 53.8342 81.4622 53.6541C81.0155 53.5225 80.7073 53.1035 80.7419 52.643C80.8804 50.6448 83.6854 47.452 83.6854 47.452C83.6854 47.452 86.3415 46.936 88.3916 46.9048C89.7768 46.8841 86.6843 47.6944 86.2584 50.3332C86.1649 50.8942 86.0437 53.152 86.0021 53.9312Z"
        fill="#7D4429" />
    <path
        d="M104.467 46.5619L104.006 48.9652C103.958 49.2145 103.791 49.4292 103.563 49.5366L88.5821 56.563C88.3258 56.6842 88.1146 56.6945 87.938 56.6322L88.073 55.9396L88.4817 53.803L104.259 46.4026C104.366 46.3507 104.487 46.4442 104.467 46.5619Z"
        fill="#43608C" />
    <path
        d="M104.367 41.8699C104.256 42.9365 104.079 44.0169 103.83 45.0835L98.4171 35.6642C98.3444 35.5361 98.2544 35.3976 98.1539 35.2452L98.1505 35.2418C96.3982 32.6341 90.7674 26.7506 92.5059 24.891C93.5828 23.7378 96.5991 26.2103 99.6569 29.6802C101.825 32.1355 104.432 34.7604 104.512 38.4069C104.536 39.5116 104.491 40.6821 104.367 41.8699Z"
        fill="#C26E4A" />
    <path
        d="M90.4074 47.1991C88.437 46.5758 86.3869 47.0502 84.9948 47.5593C83.5473 48.0857 81.5804 49.7236 80.7943 52.3486C80.7943 52.3486 79.513 57.3456 78.1589 54.7657C76.8015 52.1858 75.6656 48.8163 74.8899 45.3949C74.2077 42.3995 72.8883 39.1616 73.2796 35.9792C73.6744 32.7967 78.5953 30.6323 79.4472 30.2376C80.3025 29.8428 83.4503 30.0679 84.8286 30.6427C87.4258 31.7232 88.34 33.42 87.6474 34.0537C87.502 34.1853 87.2908 34.2719 87.0103 34.2962C89.4309 35.2312 90.3347 37.5063 89.8464 38.334C89.6837 38.6075 89.3651 38.7218 88.8976 38.5694C91.055 40.0447 91.6541 42.1363 90.9477 42.8289C90.913 42.8704 90.8715 42.9016 90.823 42.9328C90.7295 42.9916 90.6221 43.0332 90.5009 43.0505C90.449 43.0574 90.4074 43.0644 90.3728 43.0644C90.3763 43.0678 90.3832 43.0678 90.3866 43.0713C90.6221 43.1717 90.8299 43.3068 91.01 43.473H91.0134C92.4506 44.7751 92.1493 47.7532 90.4074 47.1991Z"
        fill="#C26E4A" />
    <path
        d="M154.708 160.493L153.658 168.185C153.658 168.185 145.507 170.197 137.867 171.121C133.327 171.672 128.805 172.229 126.741 170.685C122.644 167.624 123.222 163.347 122.644 158C122.038 152.387 121.647 146.912 122.949 144.709C124.698 145.021 126.152 145.198 128.185 145.769C124.448 157.966 129.047 163.51 131.738 164.559C134.429 165.612 144.035 167.011 154.708 160.493Z"
        fill="#D1D3D9" />
    <path
        d="M133.321 143.141L132.718 143.916C130.949 142.67 129.743 141.395 129.02 143.885C128.299 146.375 123.985 172.455 119.081 180.264C123.583 167.821 122.579 153.1 119.081 146.822C119.046 146.76 119.012 146.701 118.981 146.642C118.17 145.246 117.232 144.297 116.203 143.92L114.652 143.885L115.701 143.03C115.982 142.805 116.311 142.649 116.664 142.583L128.833 140.322C129.224 140.249 129.626 140.343 129.944 140.582L133.321 143.141Z"
        fill="#8F4B26" />
    <path opacity="0.17"
        d="M146.081 160.885L141.389 168.185L138.989 170.242C136.742 170.218 133.857 170.467 131 171.492C124.964 173.653 123.125 177.684 119.081 180.264C117.578 181.223 112.117 188.291 105.277 197.693C108.28 192.111 114.548 183.308 121.12 175.921C121.2 175.831 120.507 177.372 120.587 177.286C124.77 172.614 131.572 167.129 134.938 165.131C143.661 159.943 146.081 160.885 146.081 160.885Z"
        fill="#351F15" />
    <path
        d="M119.081 180.264C124.92 174.588 136.995 164.452 143.817 162.876C150.639 161.3 145.594 171.887 145.594 171.887C145.594 171.887 132.663 170.235 119.081 180.264Z"
        fill="#8F4B26" />
    <path
        d="M144.648 211.541C144.405 208.414 148.54 200.996 151.231 199.03C153.922 197.063 154.379 209.398 154.379 209.398C150.216 210.939 146.026 212.5 144.648 211.541Z"
        fill="#9E5F44" />
    <path
        d="M168.487 179.346C168.532 182.712 169.685 194.257 169.685 194.257L158.209 207.077L156.619 207.236L151.598 207.735C151.248 205.775 150.895 203.836 150.535 201.942C150.535 201.938 150.535 201.938 150.535 201.938C148.543 191.494 146.424 182.407 144.648 178.556C142.549 174.009 138.937 159.936 148.765 155.711C149.929 155.212 150.742 154.925 151.279 154.762C151.927 154.565 152.183 154.544 152.183 154.544C153.184 152.986 156.401 151.24 157.052 152.006C157.173 152.141 157.211 152.355 157.139 152.667C157.142 152.664 157.146 152.657 157.152 152.65C158.59 150.804 160.02 150.572 160.65 150.821C160.865 150.904 160.986 151.04 160.986 151.188C160.979 151.233 160.976 151.261 160.976 151.261C161.952 149.862 164.096 149.821 165.412 151.299C165.73 151.656 165.997 152.103 166.191 152.639C166.208 152.598 166.225 152.556 166.239 152.515C167.943 148.283 171.697 145.329 171.472 152.376C171.243 159.496 172.556 162.744 172.556 166.353C172.556 173.133 170.495 176.589 168.487 179.346Z"
        fill="#C26E4A" />
    <path
        d="M156.62 207.237L151.598 207.735C151.249 205.775 150.895 203.836 150.535 201.942C152.18 203.878 159.826 198.832 160.702 197.72C161.347 196.903 158.403 203.535 156.62 207.237Z"
        fill="#7D4429" />
    <path
        d="M175.222 263.732C174.509 263.932 173.765 264.078 172.992 264.161C158.334 265.754 150.441 240.35 146.937 224.271C146.937 224.271 146.937 224.268 146.933 224.261C145.334 216.93 144.648 211.541 144.648 211.541C150.5 211.818 162.323 195.93 167.088 189.16C168.373 187.332 169.145 186.168 169.145 186.168C169.145 190.864 169.841 196.349 170.887 201.938C174.014 218.671 180.278 236.36 180.406 236.727C180.41 236.731 180.41 236.734 180.41 236.734C182.702 246.299 181.449 255.365 175.222 263.732Z"
        fill="#FF8238" />
    <path
        d="M139.166 235.058L129.137 261.923C113.99 260.881 102.005 258.644 92.3779 255.624L100.357 237.773L105.496 226.279C105.759 225.691 106.462 225.441 107.037 225.732L123.126 233.849L138.082 233.534C138.584 233.524 138.993 233.832 139.159 234.251C139.256 234.497 139.27 234.781 139.166 235.058Z"
        fill="#D66A3A" />
    <path
        d="M106.784 225.396L138.297 233.139C139.024 233.32 139.381 234.144 139.01 234.795L132.968 245.436C132.427 246.389 131.309 246.849 130.256 246.551L101.468 238.455C99.9551 238.029 99.2625 236.277 100.08 234.93L105.551 225.905C105.804 225.486 106.306 225.279 106.784 225.396Z"
        fill="#8F4B26" />
    <path
        d="M81.9508 217.972L64.8749 240.665C59.8017 236.09 56.1413 231.242 52.9692 226.581C56.6677 222.882 60.1618 219.219 63.462 215.61C64.6948 214.263 65.8999 212.923 67.0808 211.59C67.7041 210.883 68.324 210.177 68.9335 209.477C70.1906 208.037 71.413 206.61 72.6042 205.194L81.8884 216.008C81.8884 216.008 81.8919 216.012 81.8954 216.015C82.3663 216.573 82.3906 217.387 81.9508 217.972Z"
        fill="#D66A3A" />
    <path
        d="M81.6251 217.972L74.7754 224.358C74.1693 224.922 73.2274 224.918 72.6283 224.344L63.4653 215.607C66.7517 212.012 69.8476 208.473 72.7599 205.01L81.7636 215.821C82.2935 216.462 82.2346 217.407 81.6251 217.972Z"
        fill="#8F4B26" />
    <path
        d="M97.591 47.8917C97.6708 47.3563 97.2065 46.8435 96.5538 46.7461C95.9012 46.6488 95.3074 47.0039 95.2276 47.5393C95.1477 48.0746 95.6121 48.5875 96.2647 48.6848C96.9173 48.7822 97.5111 48.4271 97.591 47.8917Z"
        fill="white" />
    <path
        d="M41.1534 181.14C35.8586 186.781 27.5925 186.781 25.4904 185.205C24.3858 184.378 21.4769 181.78 18.9662 179.505C17.633 178.297 16.4106 177.178 15.6349 176.465C15.0877 175.959 14.776 175.249 14.776 174.501V174.314C14.7483 174.127 14.7691 173.895 14.8384 173.618C14.8488 173.999 15.5933 174.12 15.9396 173.971C17.6434 173.268 20.1852 171.571 22.8066 169.445C22.8136 169.438 22.8205 169.435 22.8274 169.428C22.8863 169.379 22.9452 169.327 23.0075 169.282C23.0144 169.272 23.0248 169.269 23.0317 169.262C23.1426 169.168 23.2568 169.075 23.3677 168.981C26.3527 166.495 29.369 163.506 31.3082 160.829C31.5956 160.431 31.8623 160.043 32.0978 159.662C33.1332 157.993 33.6146 156.518 33.3237 155.441C33.2752 155.261 33.0986 155.257 32.9947 155.254C33.0743 155.233 33.154 155.216 33.2336 155.199L33.4795 155.251L33.7635 155.313C34.5184 155.472 35.1971 155.881 35.6923 156.473C37.6385 158.79 42.7395 164.867 44.3878 166.834C46.4448 169.286 46.4448 175.495 41.1534 181.14Z"
        fill="#9D78B4" />
    <path
        d="M31.3084 160.83C27.5407 166.031 19.7006 172.42 15.9398 173.972C13.1798 172.611 10.5687 171.139 9.43982 168.583C8.18623 165.754 9.69954 161.948 12.8716 159.115C14.0767 158.042 16.719 158.039 15.739 160.023C15.1018 161.301 13.5296 162.481 12.8301 164.407C12.1894 166.17 23.2189 164.781 27.3745 162.198C28.6766 161.391 30.0237 160.979 31.3084 160.83Z"
        fill="#598DC2" />
    <path
        d="M39.4465 180.35C36.9982 182.757 30.4359 184.661 27.482 183.806C24.5316 182.954 17.4117 174.698 16.3624 174.182C16.2204 174.113 16.0785 174.044 15.9399 173.971C19.7007 172.42 27.5409 166.031 31.3086 160.829C34.1274 160.497 36.6588 161.404 37.8293 162.066C39.5331 163.028 43.3839 167.492 43.7337 169.636C44.0834 171.779 41.8949 177.947 39.4465 180.35Z"
        fill="#6F5EA5" />
    <path
        d="M20.1544 155.756C17.9831 155.493 17.6091 159.334 19.6073 159.431C21.6089 159.528 20.9613 155.853 20.1544 155.756Z"
        fill="#598DC2" />
    <path
        d="M15.715 183.238C13.9662 183.325 14.5549 187.723 16.4803 187.131C18.4057 186.538 16.7678 183.186 15.715 183.238Z"
        fill="#598DC2" />
    <path
        d="M39.2284 151.788C37.5939 151.933 38.6362 155.888 39.7201 155.659C40.804 155.431 40.3435 151.687 39.2284 151.788Z"
        fill="#598DC2" />
    <path d="M62.1045 166.658V174.006" stroke="#3B6CB3" strokeWidth="2" strokeMiterlimit="10"
        stroke-linecap="round" stroke-linejoin="round" />
    <path d="M65.7786 170.332H58.4302" stroke="#3B6CB3" strokeWidth="2" strokeMiterlimit="10"
        stroke-linecap="round" stroke-linejoin="round" />
    <path
        d="M212.442 150.437L210.365 173.563L210.257 174.75L205.004 176.388L205.09 175.408L206.067 164.559L212.442 150.437Z"
        fill="#91B6DB" />
    <path
        d="M206.067 164.559L205.091 175.409L205.004 176.389L202.518 177.161C201.551 177.462 200.682 176.479 201.101 175.558L201.465 174.751L206.067 164.559Z"
        fill="#3B6CB3" />
    <path
        d="M222.634 133.908L219.489 168.829L219.209 171.966L213.956 173.601L214.122 171.769L216.93 140.498L216.934 140.495L220.057 133.572C220.397 132.821 221.38 132.644 221.962 133.23L222.634 133.908Z"
        fill="#91B6DB" />
    <path
        d="M216.93 140.498L214.122 171.769L213.956 173.601L210.257 174.751L210.365 173.563L212.442 150.437L216.93 140.498Z"
        fill="#3B6CB3" />
    <path
        d="M230.609 141.98L228.718 162.997L228.161 169.179L222.907 170.813L223.292 166.54L225.927 137.243L230.609 141.98Z"
        fill="#91B6DB" />
    <path
        d="M225.927 137.243L223.292 166.54L222.907 170.813L219.209 171.966L219.489 168.829L222.634 133.908L225.927 137.243Z"
        fill="#3B6CB3" />
    <path
        d="M238.584 150.046L238.072 155.756L237.113 166.395L231.859 168.029L232.559 160.269L233.903 145.312L238.584 150.046Z"
        fill="#91B6DB" />
    <path
        d="M233.902 145.312L232.559 160.269L231.859 168.029L228.161 169.179L228.718 162.997L230.609 141.981L233.902 145.312Z"
        fill="#3B6CB3" />
    <path
        d="M248.748 162.772L240.987 165.186L242.037 153.54L249.236 160.826C249.853 161.453 249.589 162.509 248.748 162.772Z"
        fill="#91B6DB" />
    <path
        d="M242.037 153.54L240.987 165.186L237.112 166.395L238.072 155.756L238.584 150.046L240.437 151.923L240.44 151.926H240.444L242.037 153.54Z"
        fill="#3B6CB3" />
    <path
        d="M206.067 128.558C205.887 129.067 209.561 128.558 209.561 128.558C209.561 128.558 210.066 126.539 210.523 124.984C211.112 122.976 210.347 121.386 210.915 119.984C211.313 119.004 212.227 117.754 212.227 117.754C212.227 117.754 207.417 116.704 206.586 117.404C206.586 117.404 205.589 119.984 206.067 122.041C206.545 124.098 206.641 126.941 206.067 128.558Z"
        fill="#8F4B26" />
    <path
        d="M231.564 132.146L234.103 134.334C245.825 131.927 236.42 120.25 246.133 118.761L242.94 115.392C231.97 113.425 240.139 129.216 231.564 132.146Z"
        fill="#91B6DB" />
    <path
        d="M253.479 146.406C254.178 147.719 256.498 150.053 257.198 150.046C259.909 143.213 265.291 149.862 270.277 139.103C269.973 137.222 265.685 135.823 265.685 135.823C262.139 146.579 254.396 141.243 253.479 146.406Z"
        fill="#8F4B26" />
    <path d="M249.236 176.589L247.442 179.605L256.058 183.674L258.946 178.47L249.236 176.589Z"
        fill="#91B6DB" />
    <path
        d="M265.433 163.368C264.906 160.94 259.691 162.713 260.249 164.386C260.806 166.059 265.956 165.796 265.433 163.368Z"
        fill="#3B6CB3" />
    <path
        d="M247.488 137.517C249.444 139.318 244.797 142.078 243.748 140.731C242.695 139.387 245.811 135.972 247.488 137.517Z"
        fill="#3B6CB3" />
    <path
        d="M221.733 120.129C223.832 120.032 222.717 125.085 220.978 125.05C219.24 125.015 219.631 120.226 221.733 120.129Z"
        fill="#3B6CB3" />
    <path d="M209.89 197.454V207.888" stroke="#3B6CB3" strokeWidth="2" strokeMiterlimit="10"
        stroke-linecap="round" stroke-linejoin="round" />
    <path d="M215.105 202.669H204.671" stroke="#3B6CB3" strokeWidth="2" strokeMiterlimit="10"
        stroke-linecap="round" stroke-linejoin="round" />
    <path
        d="M221.38 242.597C223.591 242.597 225.383 240.805 225.383 238.594C225.383 236.383 223.591 234.591 221.38 234.591C219.169 234.591 217.377 236.383 217.377 238.594C217.377 240.805 219.169 242.597 221.38 242.597Z"
        stroke="#3B6CB3" strokeWidth="2" strokeMiterlimit="10" stroke-linecap="round"
        stroke-linejoin="round" />
    <path
        d="M106.59 108.393C108.619 108.393 110.264 106.748 110.264 104.719C110.264 102.69 108.619 101.045 106.59 101.045C104.561 101.045 102.916 102.69 102.916 104.719C102.916 106.748 104.561 108.393 106.59 108.393Z"
        stroke="#3B6CB3" strokeWidth="2" strokeMiterlimit="10" stroke-linecap="round"
        stroke-linejoin="round" />
    <path
        d="M124.864 93.184C126.321 93.184 127.503 92.0026 127.503 90.5452C127.503 89.0879 126.321 87.9064 124.864 87.9064C123.407 87.9064 122.225 89.0879 122.225 90.5452C122.225 92.0026 123.407 93.184 124.864 93.184Z"
        stroke="#3B6CB3" strokeWidth="2" strokeMiterlimit="10" stroke-linecap="round"
        stroke-linejoin="round" />
    <path
        d="M28.8601 210.509C30.635 210.509 32.0737 209.071 32.0737 207.296C32.0737 205.521 30.635 204.082 28.8601 204.082C27.0853 204.082 25.6465 205.521 25.6465 207.296C25.6465 209.071 27.0853 210.509 28.8601 210.509Z"
        stroke="#3B6CB3" strokeWidth="2" strokeMiterlimit="10" stroke-linecap="round"
        stroke-linejoin="round" />
    <path
        d="M124.199 181.019C122.817 179.994 119.999 183.872 120.951 184.561C121.9 185.25 125.214 181.773 124.199 181.019Z"
        fill="#E2E1F0" />
    <path
        d="M110.963 196.668C109.564 195.442 107.203 199.074 108.557 199.861C109.914 200.647 111.666 197.277 110.963 196.668Z"
        fill="#E2E1F0" />
    <path
        d="M100.315 210.838C99.193 210.114 96.9698 213.428 97.9533 214.218C98.9368 215.007 101.33 211.496 100.315 210.838Z"
        fill="#E2E1F0" />
    <path
        d="M88.4714 228.555C87.6507 227.962 85.5521 230.653 86.3071 231.377C87.0585 232.097 89.2921 229.147 88.4714 228.555Z"
        fill="#E2E1F0" />
    <path
        d="M128.496 241.842C129.403 241.842 130.138 241.107 130.138 240.201C130.138 239.294 129.403 238.559 128.496 238.559C127.59 238.559 126.855 239.294 126.855 240.201C126.855 241.107 127.59 241.842 128.496 241.842Z"
        fill="#E2E1F0" />
    <path
        d="M107.791 236.419C108.698 236.419 109.433 235.684 109.433 234.777C109.433 233.871 108.698 233.136 107.791 233.136C106.885 233.136 106.15 233.871 106.15 234.777C106.15 235.684 106.885 236.419 107.791 236.419Z"
        fill="#E2E1F0" />
    <path
        d="M74.433 219.184C75.3395 219.184 76.0744 218.449 76.0744 217.543C76.0744 216.636 75.3395 215.901 74.433 215.901C73.5264 215.901 72.7915 216.636 72.7915 217.543C72.7915 218.449 73.5264 219.184 74.433 219.184Z"
        fill="#E2E1F0" />
    <path
        d="M152.432 120.25C152.031 123.648 150.85 126.324 149.191 128.222C146.528 131.29 142.636 132.347 138.83 131.183C136.257 130.4 135.09 128.444 134.647 126.259C133.86 122.37 135.381 117.757 135.381 117.757C135.654 117.951 136.001 118.128 136.406 118.297C139.893 119.734 147.712 120.254 151.103 120.278C151.698 120.285 152.159 120.275 152.432 120.25Z"
        fill="#0E172D" />
    <path
        d="M149.191 128.222C146.528 131.29 142.636 132.347 138.83 131.183C136.257 130.401 135.09 128.444 134.646 126.259C137.195 124.444 141.642 125.068 141.978 126.899C141.978 126.899 146.175 125.85 149.191 128.222Z"
        fill="#E77472" />
    <path
        d="M151.103 120.278C150.798 121.546 150.005 122.418 149.312 122.965C148.679 123.467 147.872 123.7 147.065 123.644C144.035 123.433 141.337 122.92 138.972 122.1C138.13 121.809 137.455 121.172 137.095 120.358C136.853 119.811 136.596 119.111 136.406 118.297C139.893 119.734 147.712 120.254 151.103 120.278Z"
        fill="white" />
    <path
        d="M170.887 201.938C166.427 211.101 159.196 220.382 146.937 224.271C146.937 224.271 146.937 224.268 146.933 224.261C145.334 216.93 144.648 211.541 144.648 211.541C150.5 211.818 162.323 195.93 167.088 189.16C168.373 187.332 169.145 186.168 169.145 186.168C169.145 190.864 169.841 196.349 170.887 201.938Z"
        fill="#8F4B26" />
    <path
        d="M93.0324 79.3495C92.1078 84.0834 91.1104 89.2501 90.2343 94.3961C82.4842 102.534 73.4216 109.408 62.6934 109.266C63.6872 101.076 64.8162 94.7043 64.8162 94.7043C65.256 99.033 82.3041 92.4048 93.0324 79.3495Z"
        fill="#8F4B26" />
    <path
        d="M87.7827 117.601C87.7827 117.601 87.7827 117.601 87.7862 117.601C87.7827 117.619 87.7862 117.636 87.7862 117.653C87.7862 117.636 87.7827 117.619 87.7827 117.601Z"
        fill="#CA6734" />
    <path
        d="M110.891 143.442C103.709 142.174 92.6966 136.294 91.3252 134.203C90.3106 132.658 89.0847 128.558 88.354 123.443C88.6449 124.777 89.0604 125.885 89.618 126.723C95.3076 135.252 102.898 141.6 110.891 143.442Z"
        fill="#CA6734" />
    <path opacity="0.17"
        d="M119.081 180.263C120.757 172.454 122.624 153.079 119.081 146.822C122.579 153.1 123.583 167.821 119.081 180.263Z"
        fill="#351F15" />
    <path
        d="M171.406 115.797C173.803 117.373 174.326 121.21 171.638 123.409C173.737 120.947 171.998 116.223 171.406 115.797Z"
        fill="#7D4429" />
    <path
        d="M166.191 152.64C165.754 153.634 165.82 160.251 165.117 162.547C165.339 159.545 165.796 152.356 165.412 151.299C165.73 151.656 165.997 152.103 166.191 152.64Z"
        fill="#7D4429" />
    <path
        d="M160.976 151.261C160.65 152.324 160.328 155.51 160.505 156.66C160.293 155.472 160.273 151.691 160.65 150.821C160.865 150.905 160.986 151.04 160.986 151.189C160.979 151.234 160.976 151.261 160.976 151.261Z"
        fill="#7D4429" />
    <path
        d="M157.135 152.674C155.663 154.028 154.77 157.145 154.704 158.509C154.749 156.252 156.131 152.685 157.052 152.006C157.173 152.141 157.211 152.359 157.135 152.674Z"
        fill="#7D4429" />
    <path
        d="M152.183 154.544C151.116 155.836 150.244 157.314 149.911 158.114C150.237 157.127 150.812 155.552 151.279 154.762C151.927 154.565 152.183 154.544 152.183 154.544Z"
        fill="#7D4429" />
    <path
        d="M87.6473 34.0538C87.5018 34.1854 87.2906 34.272 87.0101 34.2962C84.3263 33.2677 82.6052 33.0842 81.9195 33.2227C81.0296 33.3993 75.842 36.5506 74.8101 37.8804C76.2437 35.8199 80.659 32.8868 81.8433 32.6444C83.1766 32.3708 86.643 33.479 87.6473 34.0538Z"
        fill="#7D4429" />
    <path
        d="M89.8465 38.3341C89.6838 38.6076 89.3652 38.7219 88.8977 38.5695C87.0831 38.0778 84.3266 37.8804 83.5405 38.1644C82.7509 38.4518 76.6284 42.4307 76.1021 43.0437C77.3072 41.3157 82.5328 37.5826 83.5336 37.4094C84.7802 37.1913 89.1089 37.7661 89.8465 38.3341Z"
        fill="#7D4429" />
    <path
        d="M90.9477 42.829C90.913 42.8705 90.8715 42.9017 90.823 42.9328C90.7295 42.9917 90.6221 43.0333 90.5009 43.0506C90.449 43.0575 90.4074 43.0644 90.3728 43.0644C90.3763 43.0679 90.3832 43.0679 90.3867 43.0714C87.9453 42.8289 85.9125 42.7493 84.7143 43.1302C81.7362 44.0722 79.8939 45.9525 78.7788 46.9014C79.3363 45.9006 82.6643 43.0471 84.4858 42.5381C85.2442 42.3268 87.8829 42.1779 90.4559 42.7354C90.5563 42.7632 90.7814 42.7909 90.9477 42.829Z"
        fill="#7D4429" />
    <path
        d="M104.366 41.8698C104.256 42.9364 104.079 44.0168 103.83 45.0834L98.417 35.6641C98.3443 35.536 98.2542 35.3975 98.1538 35.2451C99.5078 36.3879 103.397 39.0925 104.366 41.8698Z"
        fill="#7D4429" />
    <path
        d="M18.9286 179.471C18.4472 179.034 17.9832 178.612 17.5503 178.217C17.9832 178.612 18.4507 179.034 18.9286 179.471Z"
        fill="#735587" />
    <path opacity="0.23"
        d="M43.9238 177.358C43.2347 178.615 42.3239 179.89 41.1534 181.14C35.8585 186.781 27.5925 186.781 25.4904 185.205C24.3858 184.378 21.4769 181.781 18.9662 179.505C18.9524 179.495 18.942 179.481 18.9281 179.471C18.4502 179.034 17.9827 178.612 17.5499 178.217C16.9404 177.66 16.3898 177.161 15.9465 176.752C15.4825 176.316 15.1362 176.063 14.9215 175.478C14.8141 175.187 14.776 174.872 14.776 174.564V174.314C14.7483 174.127 14.7691 173.895 14.8384 173.618C14.8384 173.643 14.8418 173.667 14.8522 173.691C14.8557 173.715 14.8661 173.736 14.8799 173.76C14.8938 173.781 14.9076 173.798 14.9249 173.816C14.9907 173.885 15.0877 173.937 15.1985 173.975C15.2158 173.982 15.2366 173.989 15.2574 173.992C15.2643 173.996 15.2712 173.996 15.2782 173.999C15.2955 174.003 15.3128 174.006 15.3336 174.01V174.013C15.5483 174.051 15.7838 174.037 15.9396 173.972C17.6434 173.269 20.1852 171.572 22.8066 169.445C20.7808 171.274 19.6588 175.107 21.9063 178.844C26.3666 186.269 36.3849 185.888 41.6798 180.246C42.5732 179.294 43.3178 178.321 43.9238 177.358Z"
        fill="#593E6B" />
    <path
        d="M23.3677 168.981C23.2915 169.061 23.1806 169.154 23.0317 169.262C23.1426 169.168 23.2568 169.075 23.3677 168.981Z"
        fill="#593E6B" />
    <path opacity="0.23"
        d="M248.748 162.772L240.988 165.186L237.113 166.395L231.859 168.029L228.161 169.179L222.907 170.813L219.209 171.966L213.956 173.601L210.257 174.751L205.004 176.389L202.518 177.161C201.551 177.462 200.682 176.479 201.101 175.558L201.465 174.751C227.582 169.179 242.037 159.749 240.44 151.926H240.444L242.037 153.54L249.236 160.826C249.853 161.453 249.59 162.509 248.748 162.772Z"
        fill="#593E6B" />
    <path
        d="M178.945 257.411C174.173 259.043 169.075 260.327 163.646 261.203C160.927 261.643 158.122 261.983 155.237 262.208C151.792 262.481 148.225 262.595 144.54 262.544C139.069 262.464 133.944 262.256 129.137 261.924C113.99 260.881 102.005 258.644 92.3777 255.625C87.3495 254.049 82.9654 252.255 79.1077 250.309C76.6663 249.08 74.4396 247.788 72.393 246.444C69.5672 244.595 67.0877 242.656 64.8749 240.665C59.8016 236.09 56.1413 231.242 52.9692 226.581C52.1208 225.334 51.307 224.098 50.5105 222.886C30.2002 191.968 36.8664 142.6 66.0869 141.378C82.8996 140.672 95.9827 147.005 109.014 151.961C118.627 155.618 128.212 158.527 139.239 157.301C142.705 156.916 146.178 156.22 149.648 155.344C149.655 155.341 149.662 155.341 149.669 155.337C149.818 155.299 149.97 155.264 150.116 155.223C155.016 153.962 159.909 152.352 164.774 150.742C165.775 150.413 166.78 150.08 167.78 149.751C168.833 149.409 169.882 149.066 170.932 148.73C186.158 143.882 201.018 140.564 214.811 149.862C245.984 170.882 235.059 238.227 178.945 257.411Z"
        fill="#E2E1F0" />
    <path
        d="M54.5796 194.438L53.094 195.954L52.481 196.581L50.0431 194.019C50.0396 194.015 50.0362 194.008 50.0327 194.005L38.7989 182.193L38.7954 182.189L41.1087 179.869L52.8377 192.554L52.8793 192.595L54.5796 194.438Z"
        fill="#9D78B4" />
    <path
        d="M63.4618 190.171C63.448 193.35 60.6742 196.893 57.5125 199.611C57.4882 199.632 57.4605 199.653 57.4363 199.677C57.4051 199.705 57.3739 199.736 57.3428 199.757C57.1766 199.899 57.0069 200.041 56.8372 200.176C53.5093 202.877 49.939 204.598 48.7754 204.023C47.5391 203.41 52.2349 196.366 50.0428 194.019C50.0394 194.015 50.0359 194.008 50.0325 194.005C50.0325 194.005 50.2021 193.627 50.4896 193.212C51.0056 192.464 51.8955 191.588 52.8375 192.554L52.879 192.595C54.3612 194.199 63.4688 188.433 63.4618 190.171Z"
        fill="#9D78B4" />
    <path opacity="0.23"
        d="M56.8374 200.176C53.5095 202.877 49.9392 204.598 48.7756 204.023C47.5393 203.41 52.2351 196.366 50.0431 194.019C50.0396 194.015 50.0361 194.008 50.0327 194.005L38.7988 182.193L40.9286 181.375C39.8827 182.265 49.07 192.076 52.481 194.393C53.0178 194.756 53.1009 195.601 52.9693 196.501C52.668 198.517 50.0985 201.786 51.037 201.938C52.2455 202.132 55.2029 201.405 56.8374 200.176Z"
        fill="#593E6B" />
    <path
        d="M70.7513 23.4121L69.6986 23.9696C69.5774 24.032 69.4942 24.1462 69.4665 24.2813L69.4111 24.5549L69.9167 24.6622L70.7513 23.4121Z"
        fill="#43618F" />
    <path
        d="M104.467 46.5621C104.516 46.2713 104.329 45.9457 104.187 45.6964C104.045 45.4471 103.941 46.4167 103.986 46.531C104.031 46.6453 104.062 46.7422 104.097 46.7665C104.135 46.7907 104.245 46.7768 104.256 46.7665C104.266 46.7561 104.467 46.5621 104.467 46.5621Z"
        fill="#43608C" />
    <path
        d="M183.021 97.0313C184.236 88.0761 194.798 82.7605 197.094 86.2373C199.39 89.7141 198.801 92.8654 198.801 92.8654C202.081 94.2437 203.133 103.888 186.664 103.888C170.194 103.888 183.021 97.0313 183.021 97.0313Z"
        fill="#192440" />
    <path
        d="M180.41 97.7205C182.332 97.0313 183.021 97.0313 183.021 97.0313C185.133 98.8286 186.324 101.128 186.664 103.888L185.711 105.595L180.413 104.12V97.7205H180.41Z"
        fill="#8F4B26" />
    <path
        d="M34.0232 156.075L33.6284 162.81C33.6284 162.81 15.2124 177.202 14.776 174.314C14.7483 174.127 14.7691 173.895 14.8384 173.618C14.8384 173.615 14.8384 173.615 14.8384 173.611C15.8253 169.625 26.235 156.93 32.9947 155.254C33.0743 155.233 33.154 155.216 33.2336 155.199L33.4795 155.251L34.0232 156.075Z"
        fill="#593E6B" />
    <path
        d="M64.8159 94.7008C65.602 90.1505 83.2319 81.7528 83.2319 81.7528L82.006 92.6023C82.006 92.6023 69.4528 99.2962 69.2762 99.3377C69.0996 99.3827 65.1207 96.4946 65.1207 96.4946L64.8159 94.7008Z"
        fill="#9E5F44" />
    <path
        d="M102.676 48.775C102.545 49.7585 97.6896 57.1727 96.6992 58.7483C95.7123 60.3205 93.032 79.3495 93.032 79.3495C93.032 79.3495 91.5429 83.3734 90.317 85.3854C89.756 86.31 85.8117 89.2293 81.7531 91.8473C76.9846 94.9224 72.0602 97.5716 72.2957 96.0583C72.3858 95.4938 72.7044 93.8073 73.1545 91.4595C74.9449 82.1718 78.8476 62.568 78.9896 61.5914C79.1628 60.3655 79.3844 57.8272 77.4971 53.4119C77.4971 53.4119 79.4467 50.5446 79.7099 50.2814C79.9731 50.0217 81.2198 47.5941 82.0059 46.673C82.7954 45.7553 84.8282 45.4263 86.0091 45.4263C87.1899 45.4263 93.7523 46.0843 94.2786 46.2817C94.8015 46.4756 102.808 47.788 102.676 48.775Z"
        fill="#C26E4A" />
    <path
        d="M88.1011 53.3009L89.0672 53.6853C89.0672 53.6853 88.6378 53.9692 88.5824 53.9935C88.5305 54.0177 88.25 53.9104 88.198 53.8376C88.1461 53.7615 88.1011 53.3009 88.1011 53.3009Z"
        fill="#43608C" />
    <path
        d="M81.7531 91.8472C76.9846 94.9223 72.0602 97.5715 72.2957 96.0582C72.3858 95.4937 72.7044 93.8073 73.1545 91.4594C75.6132 92.1035 79.9974 90.6144 81.0016 90.1262C81.5453 89.8595 81.7981 90.7114 81.7531 91.8472Z"
        fill="#7D4429" />
    <path
        d="M157.267 82.2341C142.636 82.8886 138.83 100.28 133.448 106.97C128.067 113.664 121.113 118.256 119.406 120.486C117.699 122.716 116.913 124.752 114.025 125.867C111.137 126.983 104.837 127.246 102.019 129.344C99.1963 131.443 96.5714 135.446 96.703 138.005C96.8346 140.564 124.348 155.867 136.42 151.684C148.492 147.497 165.99 169.719 174.214 167.094C182.439 164.469 173.207 157.034 176.095 150.209C178.983 143.383 187.751 126.899 188.693 121.996C190.006 115.17 188.298 104.872 181.805 101.918C182.529 92.9312 167.631 81.7701 157.267 82.2341Z"
        fill="#192440" />
    <path
        d="M133.711 127.97C131.679 131.907 127.163 133.088 124.14 135.844C121.117 138.601 120.327 141.821 120.982 143.885C121.636 145.949 132.486 148.418 132.486 148.418C132.486 148.418 137.517 146.112 137.583 145.669C137.649 145.225 140.797 139.387 140.928 139.058C141.06 138.729 139.813 133.6 139.682 133.441C139.55 133.282 133.711 127.97 133.711 127.97Z"
        fill="#0E172D" />
    <path
        d="M102.13 184.769C94.2548 185.295 90.2655 182.22 90.2655 182.22C88.2397 178.747 85.6667 175.149 82.8894 171.496C82.8859 171.492 82.8859 171.489 82.8859 171.489C73.8684 159.614 62.7419 147.14 61.5368 136.301C60.7195 128.96 61.6303 118.065 62.6934 109.266C63.6873 101.076 64.8162 94.7043 64.8162 94.7043C65.256 99.033 82.3042 92.4049 93.0324 79.3495C92.1078 84.0834 91.1105 89.2501 90.2343 94.3961C88.8007 102.849 87.696 111.25 87.786 117.601C87.7826 117.619 87.786 117.636 87.786 117.653C87.8172 119.859 87.9938 121.819 88.3539 123.443C88.6448 124.777 89.0604 125.885 89.6179 126.723C95.3076 135.252 102.898 141.6 110.891 143.442C110.922 143.449 110.95 143.456 110.977 143.459C111.93 143.678 112.889 143.83 113.852 143.913C122.918 144.703 110.004 184.246 102.13 184.769Z"
        fill="#FF8238" />
    <path
        d="M52.2803 227.464C52.4326 227.2 52.6196 226.951 52.8482 226.709C52.6577 226.917 52.4673 227.173 52.2803 227.464Z"
        fill="#FF8238" />
    <path
        d="M104.027 160.76C98.2786 173.31 94.3655 181.379 90.2653 182.22C88.2395 178.747 85.6665 175.149 82.8892 171.495C82.8857 171.492 82.8857 171.488 82.8857 171.488C88.3503 174.009 99.5599 170.238 104.027 160.76Z"
        fill="#CA6734" />
    <path
        d="M171.157 203.334V203.337C169.9 217.757 167.264 233.791 162.368 247.3C161.287 250.285 160.093 253.149 158.78 255.843C157.686 258.09 156.508 260.22 155.237 262.208C151.792 262.481 148.225 262.596 144.54 262.544C139.069 262.464 133.944 262.256 129.137 261.924C113.99 260.881 102.005 258.644 92.3778 255.625C87.3495 254.049 82.9654 252.255 79.1077 250.309C76.6663 249.08 74.4396 247.788 72.393 246.444C69.5672 244.595 67.0877 242.656 64.8749 240.665C59.8017 236.09 56.1413 231.242 52.9692 226.581C56.6677 222.882 60.1618 219.219 63.462 215.61C63.8741 215.16 64.2793 214.713 64.6844 214.266C65.4948 213.37 66.2947 212.48 67.0808 211.59C67.7041 210.883 68.324 210.177 68.9335 209.477C70.1906 208.037 71.413 206.61 72.6042 205.194C72.6562 205.135 72.7047 205.072 72.7566 205.013C92.0592 182.047 103.258 162.409 109.014 151.961C111.815 146.87 113.329 143.961 113.852 143.913C114.703 143.837 118.177 143.854 122.949 144.709C123.662 144.838 124.317 144.973 124.982 145.135C125.955 145.367 126.945 145.641 128.15 145.98L128.306 145.921C132.655 147.147 137.774 149.135 142.556 152.103C143.224 152.518 143.889 152.951 144.54 153.405C144.54 153.405 146.819 154.125 150.033 155.195C150.06 155.206 150.088 155.216 150.116 155.223C157.204 157.588 168.746 161.626 170.544 163.423C171.087 163.967 171.6 167.253 171.884 172.382V172.385C172.289 179.758 172.23 190.95 171.157 203.334Z"
        fill="#FF8238" />
    <path
        d="M162.368 247.3C161.287 250.285 160.093 253.148 158.78 255.843C157.686 258.09 156.509 260.22 155.238 262.208C151.792 262.481 148.225 262.595 144.541 262.543C149.333 253.883 150.916 239.02 148.094 229.226C148.094 229.226 154.095 231.488 155.321 231.491C156.547 231.495 161.093 240.935 161.093 241.842C161.093 242.199 161.665 244.477 162.368 247.3Z"
        fill="#CA6734" />
    <path
        d="M151.559 163.073C151.033 163.205 138.57 171.395 131.218 175.145C123.866 178.899 116.954 182.411 116.954 182.411C116.954 182.411 118.488 177.902 120.13 171.689C121.771 165.477 124.067 150.804 124.853 145.291C124.853 145.291 124.898 145.236 124.981 145.135C125.636 145.291 126.301 145.468 127.031 145.669C127.385 145.766 127.755 145.869 128.15 145.98L128.306 145.921C129.784 146.337 131.353 146.842 132.967 147.445C136.097 148.612 139.401 150.143 142.556 152.103C146.663 156.861 151.878 162.994 151.559 163.073Z"
        fill="white" />
    <path
        d="M132.967 147.445C132.784 147.885 132.579 148.286 132.486 148.418C132.268 148.726 128.507 152.355 128.507 152.355L126.055 147.455C126.055 147.455 126.627 146.354 127.032 145.668C127.385 145.765 127.755 145.869 128.15 145.98L128.306 145.921C129.785 146.337 131.353 146.842 132.967 147.445Z"
        fill="#5E6576" />
    <path
        d="M121.501 150.773C118.357 162.416 111.94 189.229 105.277 198.108C110.614 196.401 119.077 180.26 119.077 180.26C119.077 180.26 123.967 166.218 123.984 161.758C124.002 157.297 121.501 150.773 121.501 150.773Z"
        fill="#D66A3A" />
    <path
        d="M143.193 170.619L142.736 172.323C142.736 172.327 142.736 172.327 142.736 172.327C136.811 176.299 120.677 187.83 105.277 209.09C93.4513 225.421 81.8193 245.07 79.1078 250.309C76.6664 249.08 74.4397 247.788 72.3931 246.444C76.0673 238.864 84.0529 227.762 91.893 216.528C96.478 209.955 101.132 203.393 105.277 197.693C112.117 188.291 117.578 181.223 119.081 180.264C123.125 177.684 124.964 173.653 131 171.492C133.857 170.467 136.742 170.218 138.989 170.242C140.492 170.252 141.711 170.391 142.442 170.495C142.923 170.564 143.193 170.619 143.193 170.619Z"
        fill="#D66A3A" />
    <path opacity="0.17"
        d="M130.81 174.027C139.135 172.784 144.087 176.195 145.593 176.721C147.096 177.248 144.648 168.673 144.648 168.673C144.648 168.673 142.899 169.023 140.887 169.459C138.871 169.896 130.81 174.027 130.81 174.027Z"
        fill="#351F15" />
    <path
        d="M175.222 263.731L180.41 236.734C180.41 236.734 180.41 236.731 180.406 236.727C180.406 236.724 180.406 236.724 180.403 236.72C180.403 236.717 180.403 236.713 180.399 236.71C180.396 236.699 180.392 236.692 180.389 236.682C179.89 235.266 169.145 204.625 169.145 186.168C169.145 186.168 168.372 187.331 167.088 189.16C166.835 187.162 166.644 185.191 166.54 183.276C166.236 178.054 166.527 173.23 167.687 169.265C168.341 167.014 169.276 165.04 170.544 163.423C173.006 164.067 175.35 165.705 177.518 168.119C178.955 169.719 180.32 171.661 181.591 173.878C183.997 178.065 186.075 183.238 187.727 188.959C191.706 202.745 196.215 257.817 175.222 263.731Z"
        fill="#FF8238" />
    <path
        d="M180.403 236.72C180.209 236.474 173.989 228.541 173.342 227.637C172.687 226.719 170.194 217.927 169.536 216.219C168.882 214.516 166.388 199.292 166.825 197.454C167.261 195.618 166.426 184.651 166.426 184.651L166.541 183.276L167.687 169.265C168.341 167.014 169.276 165.04 170.544 163.423C173.006 164.067 175.35 165.705 177.518 168.119C176.884 170.318 175.929 172.905 174.526 175.928C167.756 190.538 176.791 225.528 180.389 236.682C180.392 236.692 180.396 236.699 180.399 236.71C180.403 236.713 180.403 236.717 180.403 236.72Z"
        fill="#CA6734" />
    <path
        d="M164.944 137.745C164.944 137.745 155.3 161.498 146.964 165.501C138.633 169.504 132.597 168.06 128.33 167.274C124.067 166.484 122.558 153.82 126.166 151.067C128.005 149.661 130.443 146.839 132.846 143.757C134.716 141.354 136.565 138.791 138.089 136.623C138.442 136.121 138.778 135.64 139.093 135.186L164.944 137.745Z"
        fill="#C26E4A" />
    <path
        d="M147.754 139.539L146.082 141.987C143.574 142.628 137.597 145.703 132.846 143.757C134.716 141.354 136.565 138.791 138.089 136.623L147.754 139.539Z"
        fill="#7D4429" />
    <path
        d="M141.41 99.6457C129.861 116.091 131.437 124.053 132.399 128.253C133.362 132.454 138.522 140.415 147.446 142.337C156.37 144.263 173.165 137.527 173.342 137.264C173.518 137.001 177.542 128.953 178.065 126.764C178.592 124.576 178.328 111.018 176.753 110.319C175.177 109.619 166.343 103.846 165.554 103.493C164.764 103.14 159.691 99.8188 159.168 99.6422C158.642 99.4656 157.069 92.0306 157.069 92.0306C157.069 92.0306 153.831 89.842 153.395 89.6689C152.959 89.4923 149.108 94.9187 149.108 94.9187L141.41 99.6457Z"
        fill="#C26E4A" />
    <path
        d="M156.02 88.9279C155.366 93.454 147.557 99.296 139.221 99.9505L150.441 86.6978L156.02 88.9279Z"
        fill="#192440" />
    <path
        d="M156.02 88.9279C154.053 95.8816 154.905 105.003 163.764 107.628C163.566 111.631 168.158 113.207 169.997 113.335C171.836 113.463 169.796 124.88 169.211 128.295C168.03 135.183 159.494 137.271 156.678 140.959C152.873 145.946 150.84 151.195 146.573 152.833C142.307 154.475 153.091 156.729 157.409 159.243C161.727 161.758 173.868 142.86 174.72 141.091C175.572 139.318 181.283 122.259 180.299 118.453C179.316 114.647 177.74 107.036 177.214 106.052C176.687 105.069 173.276 101.918 172.622 101.526C171.964 101.131 156.02 88.9279 156.02 88.9279Z"
        fill="#192440" />
    <path d="M165.665 114.125C178.311 103.888 184.036 131.644 166.977 126.92L165.665 114.125Z"
        fill="#C26E4A" />
    <path
        d="M69.7923 24.5619L88.2534 53.443C88.385 53.6508 88.6482 53.727 88.8698 53.6231L104.093 46.4824C104.325 46.3751 104.412 46.0911 104.287 45.8695L86.7262 15.3123C86.5565 15.018 86.186 14.9141 85.8882 15.0768L69.9793 23.8381C69.7161 23.9801 69.633 24.3126 69.7923 24.5619Z"
        fill="#6F8AB3" />
    <path
        d="M69.7923 24.5619L88.2534 53.443C88.385 53.6508 88.6482 53.727 88.8698 53.6231L104.093 46.4824C104.325 46.3751 104.412 46.0911 104.287 45.8695L86.7262 15.3123C86.5565 15.018 86.186 14.9141 85.8882 15.0768L69.9793 23.8381C69.7161 23.9801 69.633 24.3126 69.7923 24.5619Z"
        fill="#6F8AB3" />
    <path
        d="M69.7923 24.5619L88.2534 53.443C88.385 53.6508 88.6482 53.727 88.8698 53.6231L104.093 46.4824C104.325 46.3751 104.412 46.0911 104.287 45.8695L86.7262 15.3123C86.5565 15.018 86.186 14.9141 85.8882 15.0768L69.9793 23.8381C69.7161 23.9801 69.633 24.3126 69.7923 24.5619Z"
        fill="#6F8AB3" />
    <path
        d="M69.7923 24.5619L88.2534 53.443C88.385 53.6508 88.6482 53.727 88.8698 53.6231L104.093 46.4824C104.325 46.3751 104.412 46.0911 104.287 45.8695L86.7262 15.3123C86.5565 15.018 86.186 14.9141 85.8882 15.0768L69.9793 23.8381C69.7161 23.9801 69.633 24.3126 69.7923 24.5619Z"
        fill="#6F8AB3" />
    <path
        d="M73.172 24.4512L84.9565 17.9616C85.3305 17.7538 85.8049 17.8889 86.0127 18.2629L99.8161 42.6525C100.041 43.0473 99.8784 43.5529 99.4663 43.7468L88.5095 48.8859C88.1528 49.0521 87.7269 48.9309 87.5156 48.5984L72.8811 25.5593C72.6457 25.175 72.7773 24.6694 73.172 24.4512Z"
        fill="#6F8AB3" />
    <path
        d="M73.172 24.4512L84.9565 17.9616C85.3305 17.7538 85.8049 17.8889 86.0127 18.2629L99.8161 42.6525C100.041 43.0473 99.8784 43.5529 99.4663 43.7468L88.5095 48.8859C88.1528 49.0521 87.7269 48.9309 87.5156 48.5984L72.8811 25.5593C72.6457 25.175 72.7773 24.6694 73.172 24.4512Z"
        fill="#6F8AB3" />
    <path
        d="M73.172 24.4512L84.9565 17.9616C85.3305 17.7538 85.8049 17.8889 86.0127 18.2629L99.8161 42.6525C100.041 43.0473 99.8784 43.5529 99.4663 43.7468L88.5095 48.8859C88.1528 49.0521 87.7269 48.9309 87.5156 48.5984L72.8811 25.5593C72.6457 25.175 72.7773 24.6694 73.172 24.4512Z"
        fill="#6F8AB3" />
    <path
        d="M73.172 24.4512L84.9565 17.9616C85.3305 17.7538 85.8049 17.8889 86.0127 18.2629L99.8161 42.6525C100.041 43.0473 99.8784 43.5529 99.4663 43.7468L88.5095 48.8859C88.1528 49.0521 87.7269 48.9309 87.5156 48.5984L72.8811 25.5593C72.6457 25.175 72.7773 24.6694 73.172 24.4512Z"
        fill="white" />
    <path
        d="M99.664 43.6118C99.657 43.598 99.6501 43.5876 99.6432 43.5737L85.8398 19.1875C85.6286 18.8135 85.1576 18.6785 84.7801 18.8863L72.9957 25.3758C72.9403 25.407 72.8918 25.4417 72.8468 25.4832C72.6632 25.1127 72.8018 24.6556 73.1723 24.4512L84.9568 17.9616C85.3308 17.7573 85.8017 17.8889 86.013 18.2629L99.8198 42.6491C100.003 42.9746 99.9271 43.3729 99.664 43.6118Z"
        fill="#6F8AB3" />
    <path
        d="M99.664 43.6118C99.657 43.598 99.6501 43.5876 99.6432 43.5737L85.8398 19.1875C85.6286 18.8135 85.1576 18.6785 84.7801 18.8863L72.9957 25.3758C72.9403 25.407 72.8918 25.4417 72.8468 25.4832C72.6632 25.1127 72.8018 24.6556 73.1723 24.4512L84.9568 17.9616C85.3308 17.7573 85.8017 17.8889 86.013 18.2629L99.8198 42.6491C100.003 42.9746 99.9271 43.3729 99.664 43.6118Z"
        fill="#6F8AB3" />
    <path
        d="M99.664 43.6118C99.657 43.598 99.6501 43.5876 99.6432 43.5737L85.8398 19.1875C85.6286 18.8135 85.1576 18.6785 84.7801 18.8863L72.9957 25.3758C72.9403 25.407 72.8918 25.4417 72.8468 25.4832C72.6632 25.1127 72.8018 24.6556 73.1723 24.4512L84.9568 17.9616C85.3308 17.7573 85.8017 17.8889 86.013 18.2629L99.8198 42.6491C100.003 42.9746 99.9271 43.3729 99.664 43.6118Z"
        fill="#6F8AB3" />
    <path
        d="M99.664 43.6118C99.657 43.598 99.6501 43.5876 99.6432 43.5737L85.8398 19.1875C85.6286 18.8135 85.1576 18.6785 84.7801 18.8863L72.9957 25.3758C72.9403 25.407 72.8918 25.4417 72.8468 25.4832C72.6632 25.1127 72.8018 24.6556 73.1723 24.4512L84.9568 17.9616C85.3308 17.7573 85.8017 17.8889 86.013 18.2629L99.8198 42.6491C100.003 42.9746 99.9271 43.3729 99.664 43.6118Z"
        fill="#D1D3D9" />
    <path
        d="M88.4438 53.7408C88.468 53.7789 88.4784 53.8274 88.468 53.8724L88.0733 55.9363L87.9382 56.6289C87.7304 56.5597 87.5746 56.3865 87.443 56.1822L69.1031 27.495C68.975 27.2976 68.93 27.0552 68.975 26.8232L69.4113 24.5515C69.4425 24.3887 69.6572 24.3472 69.7472 24.4857L88.4438 53.7408Z"
        fill="#43618F" />
    <path opacity="0.27"
        d="M86.0021 53.9312C85.9744 54.4783 82.0751 53.8342 81.4622 53.6541C81.0155 53.5225 80.7073 53.1035 80.7419 52.643C80.8804 50.6448 83.6854 47.452 83.6854 47.452C83.6854 47.452 86.3415 46.936 88.3916 46.9048C89.7768 46.8841 86.6843 47.6944 86.2584 50.3332C86.1649 50.8942 86.0437 53.152 86.0021 53.9312Z"
        fill="#7D4429" />
    <path
        d="M104.467 46.5619L104.006 48.9652C103.958 49.2145 103.791 49.4292 103.563 49.5366L88.5821 56.563C88.3258 56.6842 88.1146 56.6945 87.938 56.6322L88.073 55.9396L88.4817 53.803L104.259 46.4026C104.366 46.3507 104.487 46.4442 104.467 46.5619Z"
        fill="#43608C" />
    <path
        d="M104.367 41.8699C104.256 42.9365 104.079 44.0169 103.83 45.0835L98.4171 35.6642C98.3444 35.5361 98.2544 35.3976 98.1539 35.2452L98.1505 35.2418C96.3982 32.6341 90.7674 26.7506 92.5059 24.891C93.5828 23.7378 96.5991 26.2103 99.6569 29.6802C101.825 32.1355 104.432 34.7604 104.512 38.4069C104.536 39.5116 104.491 40.6821 104.367 41.8699Z"
        fill="#C26E4A" />
    <path
        d="M90.4074 47.1991C88.437 46.5758 86.3869 47.0502 84.9948 47.5593C83.5473 48.0857 81.5804 49.7236 80.7943 52.3486C80.7943 52.3486 79.513 57.3456 78.1589 54.7657C76.8015 52.1858 75.6656 48.8163 74.8899 45.3949C74.2077 42.3995 72.8883 39.1616 73.2796 35.9792C73.6744 32.7967 78.5953 30.6323 79.4472 30.2376C80.3025 29.8428 83.4503 30.0679 84.8286 30.6427C87.4258 31.7232 88.34 33.42 87.6474 34.0537C87.502 34.1853 87.2908 34.2719 87.0103 34.2962C89.4309 35.2312 90.3347 37.5063 89.8464 38.334C89.6837 38.6075 89.3651 38.7218 88.8976 38.5694C91.055 40.0447 91.6541 42.1363 90.9477 42.8289C90.913 42.8704 90.8715 42.9016 90.823 42.9328C90.7295 42.9916 90.6221 43.0332 90.5009 43.0505C90.449 43.0574 90.4074 43.0644 90.3728 43.0644C90.3763 43.0678 90.3832 43.0678 90.3866 43.0713C90.6221 43.1717 90.8299 43.3068 91.01 43.473H91.0134C92.4506 44.7751 92.1493 47.7532 90.4074 47.1991Z"
        fill="#C26E4A" />
    <path
        d="M154.708 160.493L153.658 168.185C153.658 168.185 145.507 170.197 137.867 171.121C133.327 171.672 128.805 172.229 126.741 170.685C122.644 167.624 123.222 163.347 122.644 158C122.038 152.387 121.647 146.912 122.949 144.709C124.698 145.021 126.152 145.198 128.185 145.769C124.448 157.966 129.047 163.51 131.738 164.559C134.429 165.612 144.035 167.011 154.708 160.493Z"
        fill="#D1D3D9" />
    <path
        d="M133.321 143.141L132.718 143.916C130.949 142.67 129.743 141.395 129.02 143.885C128.299 146.375 123.985 172.455 119.081 180.264C123.583 167.821 122.579 153.1 119.081 146.822C119.046 146.76 119.012 146.701 118.981 146.642C118.17 145.246 117.232 144.297 116.203 143.92L114.652 143.885L115.701 143.03C115.982 142.805 116.311 142.649 116.664 142.583L128.833 140.322C129.224 140.249 129.626 140.343 129.944 140.582L133.321 143.141Z"
        fill="#8F4B26" />
    <path opacity="0.17"
        d="M146.081 160.885L141.389 168.185L138.989 170.242C136.742 170.218 133.857 170.467 131 171.492C124.964 173.653 123.125 177.684 119.081 180.264C117.578 181.223 112.117 188.291 105.277 197.693C108.28 192.111 114.548 183.308 121.12 175.921C121.2 175.831 120.507 177.372 120.587 177.286C124.77 172.614 131.572 167.129 134.938 165.131C143.661 159.943 146.081 160.885 146.081 160.885Z"
        fill="#351F15" />
    <path
        d="M119.081 180.264C124.92 174.588 136.995 164.452 143.817 162.876C150.639 161.3 145.594 171.887 145.594 171.887C145.594 171.887 132.663 170.235 119.081 180.264Z"
        fill="#8F4B26" />
    <path
        d="M144.648 211.541C144.405 208.414 148.54 200.996 151.231 199.03C153.922 197.063 154.379 209.398 154.379 209.398C150.216 210.939 146.026 212.5 144.648 211.541Z"
        fill="#9E5F44" />
    <path
        d="M168.487 179.346C168.532 182.712 169.685 194.257 169.685 194.257L158.209 207.077L156.619 207.236L151.598 207.735C151.248 205.775 150.895 203.836 150.535 201.942C150.535 201.938 150.535 201.938 150.535 201.938C148.543 191.494 146.424 182.407 144.648 178.556C142.549 174.009 138.937 159.936 148.765 155.711C149.929 155.212 150.742 154.925 151.279 154.762C151.927 154.565 152.183 154.544 152.183 154.544C153.184 152.986 156.401 151.24 157.052 152.006C157.173 152.141 157.211 152.355 157.139 152.667C157.142 152.664 157.146 152.657 157.152 152.65C158.59 150.804 160.02 150.572 160.65 150.821C160.865 150.904 160.986 151.04 160.986 151.188C160.979 151.233 160.976 151.261 160.976 151.261C161.952 149.862 164.096 149.821 165.412 151.299C165.73 151.656 165.997 152.103 166.191 152.639C166.208 152.598 166.225 152.556 166.239 152.515C167.943 148.283 171.697 145.329 171.472 152.376C171.243 159.496 172.556 162.744 172.556 166.353C172.556 173.133 170.495 176.589 168.487 179.346Z"
        fill="#C26E4A" />
    <path
        d="M156.62 207.237L151.598 207.735C151.249 205.775 150.895 203.836 150.535 201.942C152.18 203.878 159.826 198.832 160.702 197.72C161.347 196.903 158.403 203.535 156.62 207.237Z"
        fill="#7D4429" />
    <path
        d="M175.222 263.732C174.509 263.932 173.765 264.078 172.992 264.161C158.334 265.754 150.441 240.35 146.937 224.271C146.937 224.271 146.937 224.268 146.933 224.261C145.334 216.93 144.648 211.541 144.648 211.541C150.5 211.818 162.323 195.93 167.088 189.16C168.373 187.332 169.145 186.168 169.145 186.168C169.145 190.864 169.841 196.349 170.887 201.938C174.014 218.671 180.278 236.36 180.406 236.727C180.41 236.731 180.41 236.734 180.41 236.734C182.702 246.299 181.449 255.365 175.222 263.732Z"
        fill="#FF8238" />
    <path
        d="M139.166 235.058L129.137 261.923C113.99 260.881 102.005 258.644 92.3779 255.624L100.357 237.773L105.496 226.279C105.759 225.691 106.462 225.441 107.037 225.732L123.126 233.849L138.082 233.534C138.584 233.524 138.993 233.832 139.159 234.251C139.256 234.497 139.27 234.781 139.166 235.058Z"
        fill="#D66A3A" />
    <path
        d="M106.784 225.396L138.297 233.139C139.024 233.32 139.381 234.144 139.01 234.795L132.968 245.436C132.427 246.389 131.309 246.849 130.256 246.551L101.468 238.455C99.9551 238.029 99.2625 236.277 100.08 234.93L105.551 225.905C105.804 225.486 106.306 225.279 106.784 225.396Z"
        fill="#8F4B26" />
    <path
        d="M81.9508 217.972L64.8749 240.665C59.8017 236.09 56.1413 231.242 52.9692 226.581C56.6677 222.882 60.1618 219.219 63.462 215.61C64.6948 214.263 65.8999 212.923 67.0808 211.59C67.7041 210.883 68.324 210.177 68.9335 209.477C70.1906 208.037 71.413 206.61 72.6042 205.194L81.8884 216.008C81.8884 216.008 81.8919 216.012 81.8954 216.015C82.3663 216.573 82.3906 217.387 81.9508 217.972Z"
        fill="#D66A3A" />
    <path
        d="M81.6251 217.972L74.7754 224.358C74.1693 224.922 73.2274 224.918 72.6283 224.344L63.4653 215.607C66.7517 212.012 69.8476 208.473 72.7599 205.01L81.7636 215.821C82.2935 216.462 82.2346 217.407 81.6251 217.972Z"
        fill="#8F4B26" />
    <path
        d="M97.591 47.8917C97.6708 47.3563 97.2065 46.8435 96.5538 46.7461C95.9012 46.6488 95.3074 47.0039 95.2276 47.5393C95.1477 48.0746 95.6121 48.5875 96.2647 48.6848C96.9173 48.7822 97.5111 48.4271 97.591 47.8917Z"
        fill="white" />
    <path
        d="M41.1534 181.14C35.8586 186.781 27.5925 186.781 25.4904 185.205C24.3858 184.378 21.4769 181.78 18.9662 179.505C17.633 178.297 16.4106 177.178 15.6349 176.465C15.0877 175.959 14.776 175.249 14.776 174.501V174.314C14.7483 174.127 14.7691 173.895 14.8384 173.618C14.8488 173.999 15.5933 174.12 15.9396 173.971C17.6434 173.268 20.1852 171.571 22.8066 169.445C22.8136 169.438 22.8205 169.435 22.8274 169.428C22.8863 169.379 22.9452 169.327 23.0075 169.282C23.0144 169.272 23.0248 169.269 23.0317 169.262C23.1426 169.168 23.2568 169.075 23.3677 168.981C26.3527 166.495 29.369 163.506 31.3082 160.829C31.5956 160.431 31.8623 160.043 32.0978 159.662C33.1332 157.993 33.6146 156.518 33.3237 155.441C33.2752 155.261 33.0986 155.257 32.9947 155.254C33.0743 155.233 33.154 155.216 33.2336 155.199L33.4795 155.251L33.7635 155.313C34.5184 155.472 35.1971 155.881 35.6923 156.473C37.6385 158.79 42.7395 164.867 44.3878 166.834C46.4448 169.286 46.4448 175.495 41.1534 181.14Z"
        fill="#9D78B4" />
    <path
        d="M31.3084 160.83C27.5407 166.031 19.7006 172.42 15.9398 173.972C13.1798 172.611 10.5687 171.139 9.43982 168.583C8.18623 165.754 9.69954 161.948 12.8716 159.115C14.0767 158.042 16.719 158.039 15.739 160.023C15.1018 161.301 13.5296 162.481 12.8301 164.407C12.1894 166.17 23.2189 164.781 27.3745 162.198C28.6766 161.391 30.0237 160.979 31.3084 160.83Z"
        fill="#598DC2" />
    <path
        d="M39.4465 180.35C36.9982 182.757 30.4359 184.661 27.482 183.806C24.5316 182.954 17.4117 174.698 16.3624 174.182C16.2204 174.113 16.0785 174.044 15.9399 173.971C19.7007 172.42 27.5409 166.031 31.3086 160.829C34.1274 160.497 36.6588 161.404 37.8293 162.066C39.5331 163.028 43.3839 167.492 43.7337 169.636C44.0834 171.779 41.8949 177.947 39.4465 180.35Z"
        fill="#6F5EA5" />
    <path
        d="M20.1544 155.756C17.9831 155.493 17.6091 159.334 19.6073 159.431C21.6089 159.528 20.9613 155.853 20.1544 155.756Z"
        fill="#598DC2" />
    <path
        d="M15.715 183.238C13.9662 183.325 14.5549 187.723 16.4803 187.131C18.4057 186.538 16.7678 183.186 15.715 183.238Z"
        fill="#598DC2" />
    <path
        d="M39.2284 151.788C37.5939 151.933 38.6362 155.888 39.7201 155.659C40.804 155.431 40.3435 151.687 39.2284 151.788Z"
        fill="#598DC2" />
    <path d="M62.1045 166.658V174.006" stroke="#3B6CB3" strokeWidth="2" strokeMiterlimit="10"
        stroke-linecap="round" stroke-linejoin="round" />
    <path d="M65.7786 170.332H58.4302" stroke="#3B6CB3" strokeWidth="2" strokeMiterlimit="10"
        stroke-linecap="round" stroke-linejoin="round" />
    <path
        d="M212.442 150.437L210.365 173.563L210.257 174.75L205.004 176.388L205.09 175.408L206.067 164.559L212.442 150.437Z"
        fill="#91B6DB" />
    <path
        d="M206.067 164.559L205.091 175.409L205.004 176.389L202.518 177.161C201.551 177.462 200.682 176.479 201.101 175.558L201.465 174.751L206.067 164.559Z"
        fill="#3B6CB3" />
    <path
        d="M222.634 133.908L219.489 168.829L219.209 171.966L213.956 173.601L214.122 171.769L216.93 140.498L216.934 140.495L220.057 133.572C220.397 132.821 221.38 132.644 221.962 133.23L222.634 133.908Z"
        fill="#91B6DB" />
    <path
        d="M216.93 140.498L214.122 171.769L213.956 173.601L210.257 174.751L210.365 173.563L212.442 150.437L216.93 140.498Z"
        fill="#3B6CB3" />
    <path
        d="M230.609 141.98L228.718 162.997L228.161 169.179L222.907 170.813L223.292 166.54L225.927 137.243L230.609 141.98Z"
        fill="#91B6DB" />
    <path
        d="M225.927 137.243L223.292 166.54L222.907 170.813L219.209 171.966L219.489 168.829L222.634 133.908L225.927 137.243Z"
        fill="#3B6CB3" />
    <path
        d="M238.584 150.046L238.072 155.756L237.113 166.395L231.859 168.029L232.559 160.269L233.903 145.312L238.584 150.046Z"
        fill="#91B6DB" />
    <path
        d="M233.902 145.312L232.559 160.269L231.859 168.029L228.161 169.179L228.718 162.997L230.609 141.981L233.902 145.312Z"
        fill="#3B6CB3" />
    <path
        d="M248.748 162.772L240.987 165.186L242.037 153.54L249.236 160.826C249.853 161.453 249.589 162.509 248.748 162.772Z"
        fill="#91B6DB" />
    <path
        d="M242.037 153.54L240.987 165.186L237.112 166.395L238.072 155.756L238.584 150.046L240.437 151.923L240.44 151.926H240.444L242.037 153.54Z"
        fill="#3B6CB3" />
    <path
        d="M206.067 128.558C205.887 129.067 209.561 128.558 209.561 128.558C209.561 128.558 210.066 126.539 210.523 124.984C211.112 122.976 210.347 121.386 210.915 119.984C211.313 119.004 212.227 117.754 212.227 117.754C212.227 117.754 207.417 116.704 206.586 117.404C206.586 117.404 205.589 119.984 206.067 122.041C206.545 124.098 206.641 126.941 206.067 128.558Z"
        fill="#F84844" />
    <path
        d="M231.564 132.146L234.103 134.334C245.825 131.927 236.42 120.25 246.133 118.761L242.94 115.392C231.97 113.425 240.139 129.216 231.564 132.146Z"
        fill="#91B6DB" />
    <path
        d="M253.479 146.406C254.178 147.719 256.498 150.053 257.198 150.046C259.909 143.213 265.291 149.862 270.277 139.103C269.973 137.222 265.685 135.823 265.685 135.823C262.139 146.579 254.396 141.243 253.479 146.406Z"
        fill="#F84844" />
    <path d="M249.236 176.589L247.442 179.605L256.058 183.674L258.946 178.47L249.236 176.589Z"
        fill="#91B6DB" />
    <path
        d="M265.433 163.368C264.906 160.94 259.691 162.713 260.249 164.386C260.806 166.059 265.956 165.796 265.433 163.368Z"
        fill="#3B6CB3" />
    <path
        d="M247.488 137.517C249.444 139.318 244.797 142.078 243.748 140.731C242.695 139.387 245.811 135.972 247.488 137.517Z"
        fill="#3B6CB3" />
    <path
        d="M221.733 120.129C223.832 120.032 222.717 125.085 220.978 125.05C219.24 125.015 219.631 120.226 221.733 120.129Z"
        fill="#3B6CB3" />
    <path d="M209.89 197.454V207.888" stroke="#3B6CB3" strokeWidth="2" strokeMiterlimit="10"
        stroke-linecap="round" stroke-linejoin="round" />
    <path d="M215.105 202.669H204.671" stroke="#3B6CB3" strokeWidth="2" strokeMiterlimit="10"
        stroke-linecap="round" stroke-linejoin="round" />
    <path
        d="M221.38 242.597C223.591 242.597 225.383 240.805 225.383 238.594C225.383 236.383 223.591 234.591 221.38 234.591C219.169 234.591 217.377 236.383 217.377 238.594C217.377 240.805 219.169 242.597 221.38 242.597Z"
        stroke="#3B6CB3" strokeWidth="2" strokeMiterlimit="10" stroke-linecap="round"
        stroke-linejoin="round" />
    <path
        d="M106.59 108.393C108.619 108.393 110.264 106.748 110.264 104.719C110.264 102.69 108.619 101.045 106.59 101.045C104.561 101.045 102.916 102.69 102.916 104.719C102.916 106.748 104.561 108.393 106.59 108.393Z"
        stroke="#3B6CB3" strokeWidth="2" strokeMiterlimit="10" stroke-linecap="round"
        stroke-linejoin="round" />
    <path
        d="M124.864 93.184C126.321 93.184 127.503 92.0026 127.503 90.5452C127.503 89.0879 126.321 87.9064 124.864 87.9064C123.407 87.9064 122.225 89.0879 122.225 90.5452C122.225 92.0026 123.407 93.184 124.864 93.184Z"
        stroke="#3B6CB3" strokeWidth="2" strokeMiterlimit="10" stroke-linecap="round"
        stroke-linejoin="round" />
    <path
        d="M28.8601 210.509C30.635 210.509 32.0737 209.071 32.0737 207.296C32.0737 205.521 30.635 204.082 28.8601 204.082C27.0853 204.082 25.6465 205.521 25.6465 207.296C25.6465 209.071 27.0853 210.509 28.8601 210.509Z"
        stroke="#3B6CB3" strokeWidth="2" strokeMiterlimit="10" stroke-linecap="round"
        stroke-linejoin="round" />
    <path
        d="M124.199 181.019C122.817 179.994 119.999 183.872 120.951 184.561C121.9 185.25 125.214 181.773 124.199 181.019Z"
        fill="#E2E1F0" />
    <path
        d="M110.963 196.668C109.564 195.442 107.203 199.074 108.557 199.861C109.914 200.647 111.666 197.277 110.963 196.668Z"
        fill="#E2E1F0" />
    <path
        d="M100.315 210.838C99.193 210.114 96.9698 213.428 97.9533 214.218C98.9368 215.007 101.33 211.496 100.315 210.838Z"
        fill="#E2E1F0" />
    <path
        d="M88.4714 228.555C87.6507 227.962 85.5521 230.653 86.3071 231.377C87.0585 232.097 89.2921 229.147 88.4714 228.555Z"
        fill="#E2E1F0" />
    <path
        d="M128.496 241.842C129.403 241.842 130.138 241.107 130.138 240.201C130.138 239.294 129.403 238.559 128.496 238.559C127.59 238.559 126.855 239.294 126.855 240.201C126.855 241.107 127.59 241.842 128.496 241.842Z"
        fill="#E2E1F0" />
    <path
        d="M107.791 236.419C108.698 236.419 109.433 235.684 109.433 234.777C109.433 233.871 108.698 233.136 107.791 233.136C106.885 233.136 106.15 233.871 106.15 234.777C106.15 235.684 106.885 236.419 107.791 236.419Z"
        fill="#E2E1F0" />
    <path
        d="M74.433 219.184C75.3395 219.184 76.0744 218.449 76.0744 217.543C76.0744 216.636 75.3395 215.901 74.433 215.901C73.5264 215.901 72.7915 216.636 72.7915 217.543C72.7915 218.449 73.5264 219.184 74.433 219.184Z"
        fill="#E2E1F0" />
    <path
        d="M152.432 120.25C152.031 123.648 150.85 126.324 149.191 128.222C146.528 131.29 142.636 132.347 138.83 131.183C136.257 130.4 135.09 128.444 134.647 126.259C133.86 122.37 135.381 117.757 135.381 117.757C135.654 117.951 136.001 118.128 136.406 118.297C139.893 119.734 147.712 120.254 151.103 120.278C151.698 120.285 152.159 120.275 152.432 120.25Z"
        fill="#0E172D" />
    <path
        d="M149.191 128.222C146.528 131.29 142.636 132.347 138.83 131.183C136.257 130.401 135.09 128.444 134.646 126.259C137.195 124.444 141.642 125.068 141.978 126.899C141.978 126.899 146.175 125.85 149.191 128.222Z"
        fill="#F84844" />
    <path
        d="M151.103 120.278C150.798 121.546 150.005 122.418 149.312 122.965C148.679 123.467 147.872 123.7 147.065 123.644C144.035 123.433 141.337 122.92 138.972 122.1C138.13 121.809 137.455 121.172 137.095 120.358C136.853 119.811 136.596 119.111 136.406 118.297C139.893 119.734 147.712 120.254 151.103 120.278Z"
        fill="white" />
    <path
        d="M170.887 201.938C166.427 211.101 159.196 220.382 146.937 224.271C146.937 224.271 146.937 224.268 146.933 224.261C145.334 216.93 144.648 211.541 144.648 211.541C150.5 211.818 162.323 195.93 167.088 189.16C168.373 187.332 169.145 186.168 169.145 186.168C169.145 190.864 169.841 196.349 170.887 201.938Z"
        fill="#8F4B26" />
    <path
        d="M93.0324 79.3495C92.1078 84.0834 91.1104 89.2501 90.2343 94.3961C82.4842 102.534 73.4216 109.408 62.6934 109.266C63.6872 101.076 64.8162 94.7043 64.8162 94.7043C65.256 99.033 82.3041 92.4048 93.0324 79.3495Z"
        fill="#8F4B26" />
    <path
        d="M87.7827 117.601C87.7827 117.601 87.7827 117.601 87.7862 117.601C87.7827 117.619 87.7862 117.636 87.7862 117.653C87.7862 117.636 87.7827 117.619 87.7827 117.601Z"
        fill="#CA6734" />
    <path
        d="M110.891 143.442C103.709 142.174 92.6966 136.294 91.3252 134.203C90.3106 132.658 89.0847 128.558 88.354 123.443C88.6449 124.777 89.0604 125.885 89.618 126.723C95.3076 135.252 102.898 141.6 110.891 143.442Z"
        fill="#CA6734" />
    <path opacity="0.17"
        d="M119.081 180.263C120.757 172.454 122.624 153.079 119.081 146.822C122.579 153.1 123.583 167.821 119.081 180.263Z"
        fill="#351F15" />
    <path
        d="M171.406 115.797C173.803 117.373 174.326 121.21 171.638 123.409C173.737 120.947 171.998 116.223 171.406 115.797Z"
        fill="#7D4429" />
    <path
        d="M166.191 152.64C165.754 153.634 165.82 160.251 165.117 162.547C165.339 159.545 165.796 152.356 165.412 151.299C165.73 151.656 165.997 152.103 166.191 152.64Z"
        fill="#7D4429" />
    <path
        d="M160.976 151.261C160.65 152.324 160.328 155.51 160.505 156.66C160.293 155.472 160.273 151.691 160.65 150.821C160.865 150.905 160.986 151.04 160.986 151.189C160.979 151.234 160.976 151.261 160.976 151.261Z"
        fill="#7D4429" />
    <path
        d="M157.135 152.674C155.663 154.028 154.77 157.145 154.704 158.509C154.749 156.252 156.131 152.685 157.052 152.006C157.173 152.141 157.211 152.359 157.135 152.674Z"
        fill="#7D4429" />
    <path
        d="M152.183 154.544C151.116 155.836 150.244 157.314 149.911 158.114C150.237 157.127 150.812 155.552 151.279 154.762C151.927 154.565 152.183 154.544 152.183 154.544Z"
        fill="#7D4429" />
    <path
        d="M87.6473 34.0538C87.5018 34.1854 87.2906 34.272 87.0101 34.2962C84.3263 33.2677 82.6052 33.0842 81.9195 33.2227C81.0296 33.3993 75.842 36.5506 74.8101 37.8804C76.2437 35.8199 80.659 32.8868 81.8433 32.6444C83.1766 32.3708 86.643 33.479 87.6473 34.0538Z"
        fill="#7D4429" />
    <path
        d="M89.8465 38.3341C89.6838 38.6076 89.3652 38.7219 88.8977 38.5695C87.0831 38.0778 84.3266 37.8804 83.5405 38.1644C82.7509 38.4518 76.6284 42.4307 76.1021 43.0437C77.3072 41.3157 82.5328 37.5826 83.5336 37.4094C84.7802 37.1913 89.1089 37.7661 89.8465 38.3341Z"
        fill="#7D4429" />
    <path
        d="M90.9477 42.829C90.913 42.8705 90.8715 42.9017 90.823 42.9328C90.7295 42.9917 90.6221 43.0333 90.5009 43.0506C90.449 43.0575 90.4074 43.0644 90.3728 43.0644C90.3763 43.0679 90.3832 43.0679 90.3867 43.0714C87.9453 42.8289 85.9125 42.7493 84.7143 43.1302C81.7362 44.0722 79.8939 45.9525 78.7788 46.9014C79.3363 45.9006 82.6643 43.0471 84.4858 42.5381C85.2442 42.3268 87.8829 42.1779 90.4559 42.7354C90.5563 42.7632 90.7814 42.7909 90.9477 42.829Z"
        fill="#7D4429" />
    <path
        d="M104.366 41.8698C104.256 42.9364 104.079 44.0168 103.83 45.0834L98.417 35.6641C98.3443 35.536 98.2542 35.3975 98.1538 35.2451C99.5078 36.3879 103.397 39.0925 104.366 41.8698Z"
        fill="#7D4429" />
    <path
        d="M18.9286 179.471C18.4472 179.034 17.9832 178.612 17.5503 178.217C17.9832 178.612 18.4507 179.034 18.9286 179.471Z"
        fill="#735587" />
    <path opacity="0.23"
        d="M43.9238 177.358C43.2347 178.615 42.3239 179.89 41.1534 181.14C35.8585 186.781 27.5925 186.781 25.4904 185.205C24.3858 184.378 21.4769 181.781 18.9662 179.505C18.9524 179.495 18.942 179.481 18.9281 179.471C18.4502 179.034 17.9827 178.612 17.5499 178.217C16.9404 177.66 16.3898 177.161 15.9465 176.752C15.4825 176.316 15.1362 176.063 14.9215 175.478C14.8141 175.187 14.776 174.872 14.776 174.564V174.314C14.7483 174.127 14.7691 173.895 14.8384 173.618C14.8384 173.643 14.8418 173.667 14.8522 173.691C14.8557 173.715 14.8661 173.736 14.8799 173.76C14.8938 173.781 14.9076 173.798 14.9249 173.816C14.9907 173.885 15.0877 173.937 15.1985 173.975C15.2158 173.982 15.2366 173.989 15.2574 173.992C15.2643 173.996 15.2712 173.996 15.2782 173.999C15.2955 174.003 15.3128 174.006 15.3336 174.01V174.013C15.5483 174.051 15.7838 174.037 15.9396 173.972C17.6434 173.269 20.1852 171.572 22.8066 169.445C20.7808 171.274 19.6588 175.107 21.9063 178.844C26.3666 186.269 36.3849 185.888 41.6798 180.246C42.5732 179.294 43.3178 178.321 43.9238 177.358Z"
        fill="#593E6B" />
    <path
        d="M23.3677 168.981C23.2915 169.061 23.1806 169.154 23.0317 169.262C23.1426 169.168 23.2568 169.075 23.3677 168.981Z"
        fill="#593E6B" />
    <path opacity="0.23"
        d="M248.748 162.772L240.988 165.186L237.113 166.395L231.859 168.029L228.161 169.179L222.907 170.813L219.209 171.966L213.956 173.601L210.257 174.751L205.004 176.389L202.518 177.161C201.551 177.462 200.682 176.479 201.101 175.558L201.465 174.751C227.582 169.179 242.037 159.749 240.44 151.926H240.444L242.037 153.54L249.236 160.826C249.853 161.453 249.59 162.509 248.748 162.772Z"
        fill="#593E6B" />
</svg>